<svg width="17" height="16" viewBox="0 0 17 16" fill="none" xmlns="http://www.w3.org/2000/svg">
<path d="M9.38851 7.99967L11.9555 10.6663M7.38304 5.48634C6.84825 4.99501 5.90769 4.65301 5.04333 4.63167L7.38304 5.48634ZM2.70361 10.153C3.20632 10.7697 4.14087 11.1217 5.04333 11.1517L2.70361 10.153ZM5.04333 4.63101C4.01452 4.60567 3.09334 5.03367 3.09334 6.20434C3.09334 8.35767 7.38304 7.28101 7.38304 9.43501C7.38304 10.663 6.24126 11.191 5.04333 11.1517V4.63101ZM5.04333 4.63101V3.33301V4.63101ZM5.04333 11.1523V12.6663V11.1523ZM14.7364 7.99967H9.38851H14.7364ZM9.38851 7.99967L11.9555 5.33301L9.38851 7.99967Z" stroke="white" stroke-width="1.5" stroke-linecap="round" stroke-linejoin="round"/>
</svg>
