<svg width="22" height="29" viewBox="0 0 22 29" fill="none" xmlns="http://www.w3.org/2000/svg">
<path d="M19.8884 9.13081C20.101 11.2204 19.3273 12.7014 17.5672 13.574C18.9493 13.8954 19.9829 14.4867 20.668 15.3478C21.3531 16.2089 21.6189 17.4374 21.4653 19.0332C21.3826 19.8484 21.1907 20.5659 20.8894 21.1859C20.5882 21.8059 20.2073 22.3168 19.7466 22.7186C19.2859 23.1205 18.713 23.4563 18.0279 23.7261C17.3428 23.9959 16.6252 24.194 15.8751 24.3202C15.125 24.4465 14.2657 24.5326 13.2971 24.5786V28.9701H10.5684V24.6475C9.62345 24.6475 8.9029 24.6417 8.40678 24.6302V28.9701H5.67813V24.5786C5.46551 24.5786 5.14658 24.5757 4.72134 24.57C4.29609 24.5642 3.97125 24.5613 3.74682 24.5613H0.203125L0.752398 21.4098H2.71915C3.30976 21.4098 3.65232 21.117 3.74682 20.5315V13.6084H4.03032C3.95944 13.5969 3.86494 13.5912 3.74682 13.5912V8.6486C3.59326 7.86789 3.06761 7.47753 2.16988 7.47753H0.203125V4.65319L3.95944 4.67042C4.71543 4.67042 5.28833 4.66467 5.67813 4.65319V0.313354H8.40678V4.56709C9.37539 4.54412 10.0959 4.53264 10.5684 4.53264V0.313354H13.2971V4.65319C14.2303 4.73356 15.0571 4.86272 15.7777 5.04068C16.4982 5.21864 17.1656 5.47696 17.7799 5.81565C18.3941 6.15434 18.8814 6.6021 19.2416 7.15893C19.6019 7.71577 19.8175 8.37306 19.8884 9.13081ZM16.0789 18.5166C16.0789 18.1033 15.9903 17.7359 15.8131 17.4144C15.6359 17.0929 15.4174 16.8289 15.1575 16.6222C14.8976 16.4155 14.558 16.2404 14.1387 16.0969C13.7194 15.9534 13.3325 15.8472 12.9781 15.7783C12.6238 15.7095 12.1867 15.6578 11.667 15.6233C11.1472 15.5889 10.7397 15.5717 10.4444 15.5717C10.1491 15.5717 9.76815 15.5774 9.30156 15.5889C8.83498 15.6004 8.55443 15.6061 8.45994 15.6061V21.427C8.55443 21.427 8.77296 21.4299 9.11552 21.4356C9.45808 21.4414 9.74157 21.4442 9.96601 21.4442C10.1904 21.4442 10.5035 21.4356 10.9051 21.4184C11.3067 21.4012 11.6522 21.3782 11.9416 21.3495C12.231 21.3208 12.5677 21.272 12.9516 21.2031C13.3355 21.1343 13.6633 21.0539 13.9349 20.962C14.2066 20.8702 14.4872 20.7496 14.7766 20.6004C15.066 20.4511 15.2993 20.2789 15.4765 20.0837C15.6536 19.8886 15.7983 19.6589 15.9106 19.3949C16.0228 19.1308 16.0789 18.838 16.0789 18.5166ZM14.8209 10.3191C14.8209 9.94022 14.747 9.6044 14.5994 9.31163C14.4517 9.01887 14.2716 8.77776 14.059 8.58833C13.8464 8.39889 13.5629 8.23815 13.2085 8.10612C12.8541 7.97409 12.5293 7.87937 12.234 7.82197C11.9387 7.76456 11.5754 7.71864 11.1443 7.68419C10.7131 7.64975 10.3706 7.6354 10.1166 7.64114C9.86265 7.64688 9.54372 7.65262 9.15981 7.65836C8.77592 7.6641 8.54262 7.66697 8.45994 7.66697V12.954C8.519 12.954 8.72276 12.9569 9.07122 12.9626C9.41969 12.9683 9.69432 12.9683 9.89513 12.9626C10.0959 12.9569 10.3912 12.9454 10.7811 12.9282C11.1709 12.9109 11.4957 12.8794 11.7556 12.8334C12.0154 12.7875 12.3196 12.7244 12.6681 12.644C13.0165 12.5636 13.303 12.4574 13.5274 12.3254C13.7519 12.1934 13.9704 12.0384 14.183 11.8604C14.3956 11.6825 14.5551 11.4615 14.6614 11.1974C14.7677 10.9333 14.8209 10.6406 14.8209 10.3191Z" fill="url(#paint0_linear_553_678)"/>
<defs>
<linearGradient id="paint0_linear_553_678" x1="0.203125" y1="8.07455" x2="21.4627" y2="10.0495" gradientUnits="userSpaceOnUse">
<stop stop-color="#790D83"/>
<stop offset="1" stop-color="#7A5CFF"/>
</linearGradient>
</defs>
</svg>
