<svg width="18" height="12" viewBox="0 0 18 12" fill="none" xmlns="http://www.w3.org/2000/svg">
<path d="M0.396208 0.458879C0.649976 0.165059 0.994114 0 1.35294 0C1.71177 0 2.05591 0.165059 2.30968 0.458879L9.00817 8.21692L15.7067 0.458879C15.9619 0.173386 16.3037 0.0154122 16.6585 0.0189831C17.0133 0.022554 17.3527 0.187384 17.6036 0.47797C17.8545 0.768557 17.9969 1.16165 18 1.57259C18.003 1.98352 17.8666 2.37942 17.6201 2.67501L9.9649 11.5411C9.71114 11.8349 9.367 12 9.00817 12C8.64934 12 8.3052 11.8349 8.05144 11.5411L0.396208 2.67501C0.142516 2.3811 0 1.98253 0 1.56695C0 1.15136 0.142516 0.752787 0.396208 0.458879Z" fill="#E6E6E6" fill-opacity="0.85"/>
</svg>
