<svg width="221" height="186" viewBox="0 0 221 186" fill="none" xmlns="http://www.w3.org/2000/svg">
<g opacity="0.7">
<rect width="221" height="185.802" fill="url(#paint0_angular_6_518)"/>
<path d="M48.94 53.8175C49.6867 53.9509 50.32 54.3442 50.84 54.9975C51.36 55.6509 51.62 56.3909 51.62 57.2175C51.62 57.9242 51.4333 58.5642 51.06 59.1375C50.7 59.6975 50.1733 60.1442 49.48 60.4775C48.7867 60.7975 47.98 60.9575 47.06 60.9575H41.5V47.0575H46.8C47.7467 47.0575 48.56 47.2175 49.24 47.5375C49.92 47.8575 50.4333 48.2909 50.78 48.8375C51.1267 49.3709 51.3 49.9709 51.3 50.6375C51.3 51.4375 51.0867 52.1042 50.66 52.6375C50.2333 53.1709 49.66 53.5642 48.94 53.8175ZM43.78 52.8975H46.6C47.3467 52.8975 47.9267 52.7309 48.34 52.3975C48.7667 52.0509 48.98 51.5575 48.98 50.9175C48.98 50.2909 48.7667 49.8042 48.34 49.4575C47.9267 49.0975 47.3467 48.9175 46.6 48.9175H43.78V52.8975ZM46.86 59.0975C47.6333 59.0975 48.24 58.9109 48.68 58.5375C49.12 58.1642 49.34 57.6442 49.34 56.9775C49.34 56.2975 49.1067 55.7575 48.64 55.3575C48.1733 54.9575 47.5533 54.7575 46.78 54.7575H43.78V59.0975H46.86ZM63.0777 47.0575V48.9175H59.3777V60.9575H57.0977V48.9175H53.3777V47.0575H63.0777ZM64.6267 53.9775C64.6267 52.6175 64.9401 51.3975 65.5667 50.3175C66.2067 49.2375 67.0667 48.3975 68.1467 47.7975C69.2401 47.1842 70.4334 46.8775 71.7267 46.8775C73.2067 46.8775 74.5201 47.2442 75.6667 47.9775C76.8267 48.6975 77.6667 49.7242 78.1867 51.0575H75.4467C75.0867 50.3242 74.5867 49.7775 73.9467 49.4175C73.3067 49.0575 72.5667 48.8775 71.7267 48.8775C70.8067 48.8775 69.9867 49.0842 69.2667 49.4975C68.5467 49.9109 67.9801 50.5042 67.5667 51.2775C67.1667 52.0509 66.9667 52.9509 66.9667 53.9775C66.9667 55.0042 67.1667 55.9042 67.5667 56.6775C67.9801 57.4509 68.5467 58.0509 69.2667 58.4775C69.9867 58.8909 70.8067 59.0975 71.7267 59.0975C72.5667 59.0975 73.3067 58.9175 73.9467 58.5575C74.5867 58.1975 75.0867 57.6509 75.4467 56.9175H78.1867C77.6667 58.2509 76.8267 59.2775 75.6667 59.9975C74.5201 60.7175 73.2067 61.0775 71.7267 61.0775C70.4201 61.0775 69.2267 60.7775 68.1467 60.1775C67.0667 59.5642 66.2067 58.7175 65.5667 57.6375C64.9401 56.5575 64.6267 55.3375 64.6267 53.9775Z" fill="white"/>
<path d="M45.964 81.8973C46.3187 81.9533 46.6407 82.098 46.93 82.3313C47.2287 82.5647 47.462 82.854 47.63 83.1993C47.8073 83.5447 47.896 83.9133 47.896 84.3053C47.896 84.8 47.77 85.248 47.518 85.6493C47.266 86.0413 46.8973 86.354 46.412 86.5873C45.936 86.8113 45.3713 86.9233 44.718 86.9233H41.078V77.1653H44.578C45.2407 77.1653 45.8053 77.2773 46.272 77.5013C46.7387 77.716 47.0887 78.01 47.322 78.3833C47.5553 78.7567 47.672 79.1767 47.672 79.6433C47.672 80.222 47.5133 80.7027 47.196 81.0853C46.888 81.4587 46.4773 81.7293 45.964 81.8973ZM42.352 81.3793H44.494C45.0913 81.3793 45.5533 81.2393 45.88 80.9593C46.2067 80.6793 46.37 80.292 46.37 79.7973C46.37 79.3027 46.2067 78.9153 45.88 78.6353C45.5533 78.3553 45.082 78.2153 44.466 78.2153H42.352V81.3793ZM44.606 85.8733C45.2407 85.8733 45.7353 85.724 46.09 85.4253C46.4447 85.1267 46.622 84.7113 46.622 84.1793C46.622 83.638 46.4353 83.2133 46.062 82.9053C45.6887 82.588 45.1893 82.4293 44.564 82.4293H42.352V85.8733H44.606ZM50.3219 78.0053C50.0793 78.0053 49.8739 77.9213 49.7059 77.7533C49.5379 77.5853 49.4539 77.38 49.4539 77.1373C49.4539 76.8947 49.5379 76.6893 49.7059 76.5213C49.8739 76.3533 50.0793 76.2693 50.3219 76.2693C50.5553 76.2693 50.7513 76.3533 50.9099 76.5213C51.0779 76.6893 51.1619 76.8947 51.1619 77.1373C51.1619 77.38 51.0779 77.5853 50.9099 77.7533C50.7513 77.9213 50.5553 78.0053 50.3219 78.0053ZM50.9379 79.2513V86.9233H49.6639V79.2513H50.9379ZM54.6633 80.3013V84.8233C54.6633 85.1967 54.7426 85.4627 54.9013 85.6213C55.0599 85.7707 55.3353 85.8453 55.7272 85.8453H56.6653V86.9233H55.5173C54.8079 86.9233 54.2759 86.76 53.9213 86.4333C53.5666 86.1067 53.3893 85.57 53.3893 84.8233V80.3013H52.3953V79.2513H53.3893V77.3193H54.6633V79.2513H56.6653V80.3013H54.6633ZM57.7329 83.0733C57.7329 82.28 57.8915 81.5893 58.2089 81.0013C58.5262 80.404 58.9649 79.942 59.5249 79.6153C60.0942 79.2887 60.7429 79.1253 61.4709 79.1253C62.4135 79.1253 63.1882 79.354 63.7949 79.8113C64.4109 80.2687 64.8169 80.9033 65.0129 81.7153H63.6409C63.5102 81.2487 63.2535 80.88 62.8709 80.6093C62.4975 80.3387 62.0309 80.2033 61.4709 80.2033C60.7429 80.2033 60.1549 80.4553 59.7069 80.9593C59.2589 81.454 59.0349 82.1587 59.0349 83.0733C59.0349 83.9973 59.2589 84.7113 59.7069 85.2153C60.1549 85.7193 60.7429 85.9713 61.4709 85.9713C62.0309 85.9713 62.4975 85.8407 62.8709 85.5793C63.2442 85.318 63.5009 84.9447 63.6409 84.4593H65.0129C64.8075 85.2433 64.3969 85.8733 63.7809 86.3493C63.1649 86.816 62.3949 87.0493 61.4709 87.0493C60.7429 87.0493 60.0942 86.886 59.5249 86.5593C58.9649 86.2327 58.5262 85.7707 58.2089 85.1733C57.8915 84.576 57.7329 83.876 57.7329 83.0733ZM70.0588 87.0493C69.3401 87.0493 68.6868 86.886 68.0988 86.5593C67.5201 86.2327 67.0628 85.7707 66.7268 85.1733C66.4001 84.5667 66.2368 83.8667 66.2368 83.0733C66.2368 82.2893 66.4048 81.5987 66.7408 81.0013C67.0861 80.3947 67.5528 79.9327 68.1408 79.6153C68.7288 79.2887 69.3868 79.1253 70.1148 79.1253C70.8428 79.1253 71.5008 79.2887 72.0888 79.6153C72.6768 79.9327 73.1388 80.39 73.4748 80.9873C73.8201 81.5847 73.9928 82.28 73.9928 83.0733C73.9928 83.8667 73.8154 84.5667 73.4608 85.1733C73.1154 85.7707 72.6441 86.2327 72.0468 86.5593C71.4494 86.886 70.7868 87.0493 70.0588 87.0493ZM70.0588 85.9293C70.5161 85.9293 70.9454 85.822 71.3468 85.6073C71.7481 85.3927 72.0701 85.0707 72.3128 84.6413C72.5648 84.212 72.6908 83.6893 72.6908 83.0733C72.6908 82.4573 72.5694 81.9347 72.3268 81.5053C72.0841 81.076 71.7668 80.7587 71.3748 80.5533C70.9828 80.3387 70.5581 80.2313 70.1008 80.2313C69.6341 80.2313 69.2048 80.3387 68.8128 80.5533C68.4301 80.7587 68.1221 81.076 67.8888 81.5053C67.6554 81.9347 67.5388 82.4573 67.5388 83.0733C67.5388 83.6987 67.6508 84.226 67.8748 84.6553C68.1081 85.0847 68.4161 85.4067 68.7988 85.6213C69.1814 85.8267 69.6014 85.9293 70.0588 85.9293ZM76.3258 78.0053C76.0832 78.0053 75.8778 77.9213 75.7098 77.7533C75.5418 77.5853 75.4578 77.38 75.4578 77.1373C75.4578 76.8947 75.5418 76.6893 75.7098 76.5213C75.8778 76.3533 76.0832 76.2693 76.3258 76.2693C76.5592 76.2693 76.7552 76.3533 76.9138 76.5213C77.0818 76.6893 77.1658 76.8947 77.1658 77.1373C77.1658 77.38 77.0818 77.5853 76.9138 77.7533C76.7552 77.9213 76.5592 78.0053 76.3258 78.0053ZM76.9418 79.2513V86.9233H75.6678V79.2513H76.9418ZM82.8512 79.1113C83.7845 79.1113 84.5405 79.396 85.1192 79.9653C85.6978 80.5253 85.9872 81.3373 85.9872 82.4013V86.9233H84.7272V82.5833C84.7272 81.818 84.5358 81.2347 84.1532 80.8333C83.7705 80.4227 83.2478 80.2173 82.5852 80.2173C81.9132 80.2173 81.3765 80.4273 80.9752 80.8473C80.5832 81.2673 80.3872 81.8787 80.3872 82.6813V86.9233H79.1132V79.2513H80.3872V80.3433C80.6392 79.9513 80.9798 79.648 81.4092 79.4333C81.8478 79.2187 82.3285 79.1113 82.8512 79.1113Z" fill="white"/>
<path d="M46.398 105.228V106.306H40.812V105.228H46.398ZM48.2429 101.938V100.776H50.8749V110.898H49.5869V101.938H48.2429ZM53.6793 110.982C53.4366 110.982 53.2313 110.898 53.0633 110.73C52.8953 110.562 52.8113 110.357 52.8113 110.114C52.8113 109.871 52.8953 109.666 53.0633 109.498C53.2313 109.33 53.4366 109.246 53.6793 109.246C53.9126 109.246 54.1086 109.33 54.2673 109.498C54.4353 109.666 54.5193 109.871 54.5193 110.114C54.5193 110.357 54.4353 110.562 54.2673 110.73C54.1086 110.898 53.9126 110.982 53.6793 110.982ZM57.8508 105.634C57.3281 105.429 56.9268 105.13 56.6468 104.738C56.3668 104.346 56.2268 103.87 56.2268 103.31C56.2268 102.806 56.3528 102.353 56.6048 101.952C56.8568 101.541 57.2301 101.219 57.7248 100.986C58.2288 100.743 58.8354 100.622 59.5448 100.622C60.2541 100.622 60.8561 100.743 61.3508 100.986C61.8548 101.219 62.2328 101.541 62.4848 101.952C62.7461 102.353 62.8768 102.806 62.8768 103.31C62.8768 103.851 62.7321 104.327 62.4428 104.738C62.1534 105.139 61.7568 105.438 61.2528 105.634C61.8314 105.811 62.2888 106.124 62.6248 106.572C62.9701 107.011 63.1428 107.543 63.1428 108.168C63.1428 108.775 62.9934 109.307 62.6948 109.764C62.3961 110.212 61.9714 110.562 61.4208 110.814C60.8794 111.057 60.2541 111.178 59.5448 111.178C58.8354 111.178 58.2101 111.057 57.6688 110.814C57.1368 110.562 56.7214 110.212 56.4228 109.764C56.1241 109.307 55.9748 108.775 55.9748 108.168C55.9748 107.543 56.1428 107.006 56.4788 106.558C56.8148 106.11 57.2721 105.802 57.8508 105.634ZM61.6448 103.464C61.6448 102.895 61.4581 102.456 61.0848 102.148C60.7114 101.84 60.1981 101.686 59.5448 101.686C58.9008 101.686 58.3921 101.84 58.0188 102.148C57.6454 102.456 57.4588 102.899 57.4588 103.478C57.4588 104.001 57.6501 104.421 58.0328 104.738C58.4248 105.055 58.9288 105.214 59.5448 105.214C60.1701 105.214 60.6741 105.055 61.0568 104.738C61.4488 104.411 61.6448 103.987 61.6448 103.464ZM59.5448 106.194C58.8541 106.194 58.2894 106.357 57.8508 106.684C57.4121 107.001 57.1928 107.482 57.1928 108.126C57.1928 108.723 57.4028 109.204 57.8228 109.568C58.2521 109.932 58.8261 110.114 59.5448 110.114C60.2634 110.114 60.8328 109.932 61.2528 109.568C61.6728 109.204 61.8828 108.723 61.8828 108.126C61.8828 107.501 61.6681 107.025 61.2388 106.698C60.8094 106.362 60.2448 106.194 59.5448 106.194ZM64.5548 103.058C64.5548 102.423 64.7461 101.919 65.1288 101.546C65.5115 101.163 66.0015 100.972 66.5988 100.972C67.1961 100.972 67.6861 101.163 68.0688 101.546C68.4515 101.919 68.6428 102.423 68.6428 103.058C68.6428 103.702 68.4515 104.215 68.0688 104.598C67.6861 104.971 67.1961 105.158 66.5988 105.158C66.0015 105.158 65.5115 104.971 65.1288 104.598C64.7461 104.215 64.5548 103.702 64.5548 103.058ZM72.7308 101.126L67.0608 110.898H65.8008L71.4708 101.126H72.7308ZM66.5988 101.756C66.2815 101.756 66.0295 101.868 65.8428 102.092C65.6655 102.307 65.5768 102.629 65.5768 103.058C65.5768 103.487 65.6655 103.814 65.8428 104.038C66.0295 104.262 66.2815 104.374 66.5988 104.374C66.9161 104.374 67.1681 104.262 67.3548 104.038C67.5415 103.805 67.6348 103.478 67.6348 103.058C67.6348 102.629 67.5415 102.307 67.3548 102.092C67.1681 101.868 66.9161 101.756 66.5988 101.756ZM69.9168 108.966C69.9168 108.322 70.1081 107.813 70.4908 107.44C70.8735 107.057 71.3635 106.866 71.9608 106.866C72.5581 106.866 73.0435 107.057 73.4168 107.44C73.7995 107.813 73.9908 108.322 73.9908 108.966C73.9908 109.601 73.7995 110.109 73.4168 110.492C73.0435 110.875 72.5581 111.066 71.9608 111.066C71.3635 111.066 70.8735 110.879 70.4908 110.506C70.1081 110.123 69.9168 109.61 69.9168 108.966ZM71.9468 107.664C71.6295 107.664 71.3775 107.776 71.1908 108C71.0041 108.215 70.9108 108.537 70.9108 108.966C70.9108 109.386 71.0041 109.708 71.1908 109.932C71.3775 110.147 71.6295 110.254 71.9468 110.254C72.2641 110.254 72.5161 110.147 72.7028 109.932C72.8895 109.708 72.9828 109.386 72.9828 108.966C72.9828 108.537 72.8895 108.215 72.7028 108C72.5161 107.776 72.2641 107.664 71.9468 107.664Z" fill="white"/>
</g>
<defs>
<radialGradient id="paint0_angular_6_518" cx="0" cy="0" r="1" gradientUnits="userSpaceOnUse" gradientTransform="translate(110.5 92.9012) rotate(90) scale(92.9012 110.5)">
<stop stop-color="#830D0D"/>
<stop offset="1" stop-color="#E30D0D" stop-opacity="0.94"/>
</radialGradient>
</defs>
</svg>
