<svg width="30" height="45" viewBox="0 0 30 45" fill="none" xmlns="http://www.w3.org/2000/svg">
<path d="M15.0001 0.416657C15.3567 0.416602 15.7078 0.506266 16.0223 0.677693C16.3367 0.849119 16.6048 1.09701 16.8027 1.39936L29.3781 20.6273L18.0529 25.4371L15.4312 5.8337C15.3619 5.32578 14.6382 5.32578 14.5711 5.8337L11.9494 25.4371L0.62207 20.6273L13.1974 1.39936C13.3953 1.09701 13.6634 0.849119 13.9779 0.677693C14.2923 0.506266 14.6435 0.416602 15.0001 0.416657ZM15.8342 31.1633L28.4399 25.8103L16.8049 43.6006C16.6071 43.9035 16.339 44.1519 16.0243 44.3237C15.7096 44.4956 15.3581 44.5855 15.0012 44.5855C14.6442 44.5855 14.2927 44.4956 13.978 44.3237C13.6633 44.1519 13.3952 43.9035 13.1974 43.6006L1.5624 25.8103L14.1659 31.1633C14.4302 31.2757 14.7137 31.3335 15.0001 31.3335C15.2864 31.3335 15.57 31.2757 15.8342 31.1633Z" fill="url(#paint0_linear_307_17)"/>
<defs>
<linearGradient id="paint0_linear_307_17" x1="0.62207" y1="12.379" x2="29.3749" y2="14.7182" gradientUnits="userSpaceOnUse">
<stop stop-color="#790D83"/>
<stop offset="1" stop-color="#7A5CFF"/>
</linearGradient>
</defs>
</svg>
