<svg width="26" height="24" viewBox="0 0 26 24" fill="none" xmlns="http://www.w3.org/2000/svg">
<path d="M12.2914 0.8081C12.5244 0.135572 13.4756 0.135573 13.7086 0.808102L16.1229 7.77408C16.2973 8.2773 16.7714 8.61475 17.304 8.61475H24.9724C25.7106 8.61475 26.0047 9.56904 25.3946 9.98461L19.3041 14.133C18.8375 14.4509 18.6419 15.042 18.8267 15.5755L21.1789 22.3622C21.4154 23.0447 20.6451 23.6343 20.048 23.2276L13.7037 18.9063C13.2791 18.6171 12.7209 18.6171 12.2963 18.9063L5.95198 23.2276C5.35493 23.6343 4.58456 23.0447 4.82112 22.3622L7.17325 15.5755C7.35814 15.042 7.16249 14.4509 6.69587 14.133L0.60538 9.98461C-0.00474143 9.56904 0.289387 8.61475 1.02759 8.61475H8.696C9.22858 8.61475 9.70267 8.2773 9.87708 7.77408L12.2914 0.8081Z" fill="#FFD700" stroke="url(#paint0_linear_346_50)" stroke-width="0.5"/>
<defs>
<linearGradient id="paint0_linear_346_50" x1="25.5" y1="10.5" x2="-9.88718e-07" y2="10" gradientUnits="userSpaceOnUse">
<stop stop-color="#FFD700"/>
<stop offset="1" stop-color="white" stop-opacity="0.63"/>
</linearGradient>
</defs>
</svg>
