<svg width="30" height="40" viewBox="0 0 30 40" fill="none" xmlns="http://www.w3.org/2000/svg">
<path d="M27.72 12.3077C28.0194 15.2244 26.9299 17.2917 24.4515 18.5096C26.3976 18.9583 27.8531 19.7837 28.8178 20.9856C29.7826 22.1875 30.1568 23.9022 29.9406 26.1298C29.8242 27.2676 29.5539 28.2692 29.1297 29.1346C28.7056 30 28.1691 30.7131 27.5204 31.274C26.8717 31.8349 26.065 32.3037 25.1002 32.6803C24.1355 33.0569 23.125 33.3333 22.0687 33.5096C21.0125 33.6859 19.8024 33.8061 18.4384 33.8702V40H14.596V33.9663C13.2654 33.9663 12.2507 33.9583 11.5521 33.9423V40H7.70971V33.8702C7.4103 33.8702 6.96119 33.8662 6.36238 33.8582C5.76357 33.8502 5.30614 33.8462 4.9901 33.8462H0L0.773466 29.4471H3.54297C4.37466 29.4471 4.85703 29.0385 4.9901 28.2212V18.5577H5.38931C5.28951 18.5417 5.15644 18.5337 4.9901 18.5337V11.6346C4.77386 10.5449 4.03367 10 2.76951 10H0V6.05769L5.28951 6.08173C6.35406 6.08173 7.1608 6.07372 7.70971 6.05769V0H11.5521V5.9375C12.916 5.90545 13.9307 5.88942 14.596 5.88942V0H18.4384V6.05769C19.7525 6.16987 20.9168 6.35016 21.9315 6.59856C22.9462 6.84696 23.886 7.20753 24.7509 7.68029C25.6159 8.15304 26.302 8.77804 26.8093 9.55529C27.3167 10.3325 27.6202 11.25 27.72 12.3077ZM22.3557 25.4087C22.3557 24.8317 22.2309 24.3189 21.9814 23.8702C21.7319 23.4215 21.4242 23.0529 21.0582 22.7644C20.6923 22.476 20.2141 22.2316 19.6236 22.0312C19.0331 21.8309 18.4883 21.6827 17.9893 21.5865C17.4903 21.4904 16.8749 21.4183 16.143 21.3702C15.4111 21.3221 14.8372 21.2981 14.4214 21.2981C14.0056 21.2981 13.4691 21.3061 12.8121 21.3221C12.1551 21.3381 11.76 21.3462 11.6269 21.3462V29.4712C11.76 29.4712 12.0677 29.4752 12.5501 29.4832C13.0325 29.4912 13.4317 29.4952 13.7477 29.4952C14.0638 29.4952 14.5046 29.4832 15.0701 29.4591C15.6357 29.4351 16.1222 29.403 16.5297 29.363C16.9372 29.3229 17.4113 29.2548 17.9519 29.1587C18.4925 29.0625 18.9541 28.9503 19.3366 28.8221C19.7192 28.6939 20.1143 28.5256 20.5218 28.3173C20.9293 28.109 21.2578 27.8686 21.5073 27.5962C21.7568 27.3237 21.9606 27.0032 22.1186 26.6346C22.2766 26.266 22.3557 25.8574 22.3557 25.4087ZM20.5842 13.9663C20.5842 13.4375 20.4802 12.9688 20.2723 12.5601C20.0644 12.1514 19.8107 11.8149 19.5113 11.5505C19.2119 11.2861 18.8127 11.0617 18.3137 10.8774C17.8147 10.6931 17.3572 10.5609 16.9414 10.4808C16.5256 10.4006 16.0141 10.3365 15.4069 10.2885C14.7998 10.2404 14.3174 10.2204 13.9598 10.2284C13.6022 10.2364 13.1531 10.2444 12.6125 10.2524C12.0719 10.2604 11.7434 10.2644 11.6269 10.2644V17.6442C11.7101 17.6442 11.997 17.6482 12.4877 17.6562C12.9784 17.6643 13.3652 17.6643 13.6479 17.6562C13.9307 17.6482 14.3465 17.6322 14.8955 17.6082C15.4444 17.5841 15.9018 17.5401 16.2677 17.476C16.6337 17.4119 17.062 17.3237 17.5527 17.2115C18.0434 17.0994 18.4467 16.9511 18.7628 16.7668C19.0788 16.5825 19.3865 16.3662 19.686 16.1178C19.9854 15.8694 20.2099 15.5609 20.3596 15.1923C20.5093 14.8237 20.5842 14.4151 20.5842 13.9663Z" fill="url(#paint0_linear_307_22)"/>
<defs>
<linearGradient id="paint0_linear_307_22" x1="-8.1513e-08" y1="10.8333" x2="29.9323" y2="13.6386" gradientUnits="userSpaceOnUse">
<stop stop-color="#790D83"/>
<stop offset="1" stop-color="#7A5CFF"/>
</linearGradient>
</defs>
</svg>
