<svg width="48" height="44" viewBox="0 0 48 44" fill="none" xmlns="http://www.w3.org/2000/svg">
<g filter="url(#filter0_dd_307_25)">
<path fill-rule="evenodd" clip-rule="evenodd" d="M22.0104 1.69643C22.0104 1.24651 22.2102 0.815014 22.5657 0.496872C22.9212 0.17873 23.4034 0 23.9062 0C24.4091 0 24.8913 0.17873 25.2468 0.496872C25.6023 0.815014 25.8021 1.24651 25.8021 1.69643C25.8021 2.14635 25.6023 2.57784 25.2468 2.89598C24.8913 3.21413 24.4091 3.39286 23.9062 3.39286C23.4034 3.39286 22.9212 3.21413 22.5657 2.89598C22.2102 2.57784 22.0104 2.14635 22.0104 1.69643ZM23.9062 3.39286C23.152 3.39286 22.4287 3.66095 21.8954 4.13817C21.3621 4.61538 21.0625 5.26262 21.0625 5.9375C21.0625 6.61238 21.3621 7.25962 21.8954 7.73683C22.4287 8.21405 23.152 8.48214 23.9062 8.48214C24.6605 8.48214 25.3838 8.21405 25.9171 7.73683C26.4504 7.25962 26.75 6.61238 26.75 5.9375C26.75 5.26262 26.4504 4.61538 25.9171 4.13817C25.3838 3.66095 24.6605 3.39286 23.9062 3.39286ZM31.2697 3.00777C31.3932 2.81328 31.5586 2.64259 31.7562 2.50551C31.9538 2.36844 32.1797 2.26769 32.421 2.20907C32.6623 2.15045 32.9142 2.13512 33.1621 2.16396C33.41 2.1928 33.6492 2.26523 33.8657 2.3771C34.0822 2.48896 34.2719 2.63805 34.4237 2.81577C34.5756 2.99349 34.6867 3.19633 34.7506 3.41263C34.8145 3.62892 34.83 3.85439 34.7961 4.07605C34.7622 4.29771 34.6797 4.51119 34.5532 4.7042C34.3001 5.09065 33.8863 5.37181 33.4023 5.48631C32.9183 5.60082 32.4034 5.53937 31.9698 5.31538C31.5363 5.09139 31.2193 4.72304 31.0881 4.29072C30.957 3.85839 31.0222 3.3972 31.2697 3.00777ZM13.9531 2.38688C14.1688 2.27373 14.4074 2.19987 14.6551 2.16957C14.9028 2.13926 15.1548 2.15309 15.3965 2.21028C15.6382 2.26746 15.8649 2.36687 16.0635 2.50276C16.2621 2.63866 16.4287 2.80837 16.5538 3.00212C16.6788 3.19587 16.7597 3.40984 16.792 3.6317C16.8242 3.85355 16.807 4.07893 16.7415 4.29484C16.676 4.51074 16.5634 4.71293 16.4103 4.88974C16.2571 5.06656 16.0663 5.21451 15.849 5.32509C15.4138 5.5465 14.8983 5.60489 14.4152 5.48752C13.9321 5.37015 13.5204 5.08654 13.2701 4.69859C13.0198 4.31064 12.9511 3.84984 13.0791 3.41675C13.207 2.98365 13.5212 2.61343 13.9531 2.38688ZM31.281 7.61696C31.6724 7.26649 32.1697 7.02589 32.7117 6.92468C33.2537 6.82347 33.817 6.86605 34.3323 7.04721C34.8477 7.22837 35.2928 7.54021 35.6129 7.94448C35.933 8.34875 36.1143 8.82785 36.1344 9.32298C36.1546 9.81812 36.0128 10.3078 35.7264 10.7318C35.44 11.1558 35.0215 11.4959 34.5223 11.7101C34.023 11.9244 33.4647 12.0035 32.9159 11.9379C32.367 11.8722 31.8516 11.6647 31.4327 11.3406C31.5844 12.1006 31.446 12.9115 30.9815 13.6308C30.6623 14.128 30.2069 14.5442 29.6582 14.8404C30.1064 14.619 30.6 14.4812 31.1092 14.4351C31.6185 14.3891 32.133 14.4358 32.6215 14.5724C33.1101 14.7091 33.5627 14.9328 33.952 15.2302C34.3414 15.5275 34.6594 15.8924 34.8869 16.3027C35.2421 15.8711 35.7405 15.5509 36.3111 15.3878C36.8816 15.2246 37.4952 15.2268 38.0642 15.3941C38.6333 15.5614 39.1288 15.8852 39.4801 16.3193C39.8313 16.7534 40.0205 17.2757 40.0205 17.8117C40.0205 18.3476 39.8313 18.8699 39.4801 19.304C39.1288 19.7381 38.6333 20.0619 38.0642 20.2292C37.4952 20.3965 36.8816 20.3987 36.3111 20.2355C35.7405 20.0724 35.2421 19.7522 34.8869 19.3206C34.6594 19.7314 34.3412 20.0966 33.9516 20.3943C33.562 20.692 33.109 20.9159 32.62 21.0526C32.1309 21.1892 31.616 21.2358 31.1063 21.1895C30.5966 21.1431 30.1027 21.0048 29.6544 20.7829C30.3128 21.136 30.8353 21.6603 31.1524 22.2858C31.4694 22.9114 31.5659 23.6085 31.4289 24.2844C31.9265 23.8988 32.5581 23.6797 33.2161 23.6643C33.8741 23.6489 34.5176 23.8382 35.0371 24.2C35.5565 24.5617 35.9196 25.0735 36.0644 25.648C36.2093 26.2225 36.127 26.8242 35.8315 27.3505C35.536 27.8768 35.0456 28.295 34.444 28.534C33.8424 28.7729 33.1668 28.8176 32.5324 28.6607C31.898 28.5037 31.3441 28.1546 30.9652 27.673C30.5863 27.1915 30.4058 26.6072 30.4545 26.0198C29.9366 26.5083 29.2682 26.848 28.5341 26.9958C27.8 27.1436 27.0334 27.0929 26.3317 26.85C25.6299 26.6071 25.0246 26.183 24.5928 25.6317C24.1609 25.0803 23.922 24.4265 23.9062 23.7534C23.8923 24.4273 23.6544 25.0822 23.2229 25.6347C22.7913 26.1871 22.1856 26.612 21.4831 26.8552C20.7805 27.0983 20.013 27.1487 19.2783 26.9999C18.5436 26.8512 17.8751 26.51 17.358 26.0198C17.4067 26.6071 17.2262 27.1912 16.8473 27.6727C16.4685 28.1542 15.9147 28.5033 15.2805 28.6603C14.6463 28.8174 13.9708 28.7727 13.3692 28.534C12.7676 28.2953 12.2772 27.8772 11.9815 27.3512C11.6858 26.8251 11.6032 26.2235 11.7477 25.649C11.8922 25.0746 12.2549 24.5627 12.774 24.2007C13.2931 23.8387 13.9364 23.6491 14.5942 23.664C15.2521 23.679 15.8838 23.8976 16.3817 24.2827C16.224 23.4958 16.3832 22.6843 16.831 21.9925C17.1512 21.4949 17.608 21.0786 18.1581 20.7829C17.7099 21.0049 17.2161 21.1433 16.7065 21.1897C16.1969 21.2362 15.682 21.1898 15.193 21.0533C14.704 20.9168 14.251 20.693 13.8613 20.3955C13.4716 20.098 13.1533 19.7329 12.9256 19.3223C12.5704 19.7539 12.072 20.0741 11.5014 20.2372C10.9309 20.4004 10.3173 20.3982 9.74829 20.2309C9.17923 20.0636 8.68373 19.7398 8.33245 19.3057C7.98117 18.8716 7.79204 18.3493 7.79204 17.8133C7.79204 17.2774 7.98117 16.7551 8.33245 16.321C8.68373 15.8869 9.17923 15.5631 9.74829 15.3958C10.3173 15.2285 10.9309 15.2263 11.5014 15.3895C12.072 15.5526 12.5704 15.8728 12.9256 16.3044C13.1531 15.8938 13.4712 15.5288 13.8607 15.2313C14.2502 14.9338 14.703 14.7099 15.1918 14.5733C15.6806 14.4366 16.1952 14.39 16.7047 14.4362C17.2142 14.4824 17.708 14.6204 18.1562 14.8421C17.6068 14.5461 17.1507 14.1299 16.831 13.6325C16.3832 12.9407 16.224 12.1292 16.3817 11.3423C15.8838 11.7274 15.2521 11.946 14.5942 11.961C13.9364 11.9759 13.2931 11.7863 12.774 11.4243C12.2549 11.0623 11.8922 10.5504 11.7477 9.97596C11.6032 9.40147 11.6858 8.79992 11.9815 8.27384C12.2772 7.74777 12.7676 7.32974 13.3692 7.09101C13.9708 6.85228 14.6463 6.80764 15.2805 6.96469C15.9147 7.12174 16.4685 7.47077 16.8473 7.95226C17.2262 8.43376 17.4067 9.01793 17.358 9.60518C17.8751 9.11504 18.5436 8.77383 19.2783 8.62505C20.013 8.47628 20.7805 8.52668 21.4831 8.76984C22.1856 9.013 22.7913 9.43789 23.2229 9.99032C23.6544 10.5428 23.8923 11.1977 23.9062 11.8716C23.9202 11.1977 24.1581 10.5428 24.5896 9.99032C25.0212 9.43789 25.6269 9.013 26.3294 8.76984C27.032 8.52668 27.7995 8.47628 28.5342 8.62505C29.2689 8.77383 29.9374 9.11504 30.4545 9.60518C30.3957 8.89268 30.6706 8.16152 31.2791 7.61696H31.281ZM23.9062 11.9937C23.8963 12.5798 23.7166 13.1536 23.3847 13.659C23.0529 14.1644 22.5803 14.5841 22.013 14.8773C21.4457 15.1704 20.8032 15.3268 20.1481 15.3314C19.4931 15.3359 18.8479 15.1884 18.2756 14.9031C18.8375 15.2044 19.3024 15.6308 19.6252 16.1408C19.948 16.6508 20.1176 17.2269 20.1174 17.813C20.1172 18.3991 19.9473 18.9751 19.6241 19.4849C19.301 19.9947 18.8358 20.4209 18.2737 20.7219C18.8461 20.4368 19.4914 20.2893 20.1465 20.2939C20.8016 20.2984 21.4442 20.4549 22.0116 20.748C22.579 21.041 23.0518 21.4607 23.3838 21.966C23.7159 22.4714 23.8959 23.0451 23.9062 23.6313C23.9168 23.0453 24.0968 22.4719 24.4288 21.9668C24.7608 21.4617 25.2333 21.0422 25.8004 20.7491C26.3675 20.4561 27.0098 20.2996 27.6646 20.2948C28.3195 20.29 28.9645 20.4372 29.5369 20.7219C28.9749 20.4208 28.5098 19.9945 28.1869 19.4846C27.8639 18.9747 27.6942 18.3986 27.6942 17.8125C27.6942 17.2264 27.8639 16.6503 28.1869 16.1404C28.5098 15.6305 28.9749 15.2042 29.5369 14.9031C28.9645 15.1878 28.3195 15.335 27.6646 15.3302C27.0098 15.3254 26.3675 15.1689 25.8004 14.8759C25.2333 14.5828 24.7608 14.1633 24.4288 13.6582C24.0968 13.1531 23.9168 12.5797 23.9062 11.9937ZM7.79204 17.8133C7.79204 17.3634 7.59193 16.9311 7.23639 16.6129C6.88085 16.2948 6.39864 16.1161 5.89583 16.1161C5.39303 16.1161 4.91081 16.2948 4.55528 16.6129C4.19974 16.9311 4 17.3626 4 17.8125C4 18.2624 4.19974 18.6939 4.55528 19.0121C4.91081 19.3302 5.39303 19.5089 5.89583 19.5089C6.39864 19.5089 6.88085 19.3302 7.23639 19.0121C7.59193 18.6939 7.79204 18.2633 7.79204 17.8133ZM6.66744 8.90625C6.79101 8.71176 6.95636 8.54107 7.15396 8.40399C7.35156 8.26692 7.5775 8.16617 7.81879 8.10755C8.06008 8.04894 8.31194 8.0336 8.55988 8.06244C8.80782 8.09128 9.04693 8.16371 9.26345 8.27558C9.47998 8.38744 9.66964 8.53653 9.82151 8.71425C9.97338 8.89197 10.0845 9.09482 10.1484 9.31111C10.2123 9.5274 10.2277 9.75287 10.1939 9.97453C10.16 10.1962 10.0775 10.4097 9.95102 10.6027C9.69783 10.9891 9.28409 11.2703 8.8001 11.3848C8.3161 11.4993 7.80113 11.4378 7.36758 11.2139C6.93403 10.9899 6.61708 10.6215 6.48591 10.1892C6.35474 9.75688 6.42 9.29568 6.66744 8.90625ZM38.5554 8.28536C38.771 8.17221 39.0096 8.09836 39.2573 8.06805C39.5051 8.03774 39.757 8.05158 39.9987 8.10876C40.2405 8.16595 40.4671 8.26535 40.6658 8.40125C40.8644 8.53714 41.031 8.70685 41.156 8.9006C41.281 9.09435 41.362 9.30832 41.3942 9.53018C41.4264 9.75204 41.4093 9.97741 41.3438 10.1933C41.2783 10.4092 41.1657 10.6114 41.0125 10.7882C40.8593 10.965 40.6685 11.113 40.4512 11.2236C40.016 11.445 39.5006 11.5034 39.0174 11.386C38.5343 11.2686 38.1227 10.985 37.8723 10.5971C37.622 10.2091 37.5533 9.74832 37.6813 9.31523C37.8093 8.88214 38.1235 8.51192 38.5554 8.28536ZM40.0205 17.8117C40.0205 17.3617 40.2206 16.9311 40.5761 16.6129C40.9316 16.2948 41.4139 16.1161 41.9167 16.1161C42.4195 16.1161 42.9017 16.2948 43.2572 16.6129C43.6128 16.9311 43.8125 17.3626 43.8125 17.8125C43.8125 18.2624 43.6128 18.6939 43.2572 19.0121C42.9017 19.3302 42.4195 19.5089 41.9167 19.5089C41.4139 19.5089 40.9316 19.3302 40.5761 19.0121C40.2206 18.6939 40.0205 18.2616 40.0205 17.8117ZM7.36131 24.4014C7.577 24.2883 7.81557 24.2144 8.06329 24.1841C8.31101 24.1538 8.56298 24.1676 8.8047 24.2248C9.04642 24.282 9.27311 24.3814 9.47172 24.5173C9.67033 24.6532 9.83693 24.8229 9.96195 25.0167C10.087 25.2104 10.1679 25.4244 10.2001 25.6462C10.2324 25.8681 10.2152 26.0935 10.1497 26.3094C10.0842 26.5253 9.97163 26.7275 9.81844 26.9043C9.66525 27.0811 9.47449 27.2291 9.25715 27.3396C8.82194 27.5611 8.30653 27.6194 7.82339 27.5021C7.34026 27.3847 6.92861 27.1011 6.67829 26.7131C6.42797 26.3252 6.3593 25.8644 6.48726 25.4313C6.61522 24.9982 6.92943 24.628 7.36131 24.4014ZM37.8615 25.0223C37.9851 24.8278 38.1504 24.6571 38.348 24.5201C38.5456 24.383 38.7715 24.2822 39.0128 24.2236C39.2541 24.165 39.506 24.1497 39.7539 24.1785C40.0019 24.2073 40.241 24.2798 40.4575 24.3917C40.674 24.5035 40.8637 24.6526 41.0156 24.8303C41.1674 25.008 41.2785 25.2109 41.3424 25.4272C41.4063 25.6435 41.4218 25.8689 41.3879 26.0906C41.354 26.3123 41.2715 26.5257 41.1451 26.7188C40.8919 27.1052 40.4781 27.3864 39.9941 27.5009C39.5101 27.6154 38.9952 27.5539 38.5616 27.3299C38.1281 27.1059 37.8111 26.7376 37.68 26.3053C37.5488 25.8729 37.614 25.4118 37.8615 25.0223ZM21.0625 29.6875C21.0625 29.0126 21.3621 28.3654 21.8954 27.8882C22.4287 27.411 23.152 27.1429 23.9062 27.1429C24.6605 27.1429 25.3838 27.411 25.9171 27.8882C26.4504 28.3654 26.75 29.0126 26.75 29.6875C26.75 30.3624 26.4504 31.0096 25.9171 31.4868C25.3838 31.964 24.6605 32.2321 23.9062 32.2321C23.152 32.2321 22.4287 31.964 21.8954 31.4868C21.3621 31.0096 21.0625 30.3624 21.0625 29.6875ZM23.9062 32.2321C23.4034 32.2321 22.9212 32.4109 22.5657 32.729C22.2102 33.0472 22.0104 33.4786 22.0104 33.9286C22.0104 34.3785 22.2102 34.81 22.5657 35.1281C22.9212 35.4463 23.4034 35.625 23.9062 35.625C24.4091 35.625 24.8913 35.4463 25.2468 35.1281C25.6023 34.81 25.8021 34.3785 25.8021 33.9286C25.8021 33.4786 25.6023 33.0472 25.2468 32.729C24.8913 32.4109 24.4091 32.2321 23.9062 32.2321ZM13.2592 30.9208C13.3828 30.7263 13.5482 30.5556 13.7458 30.4185C13.9434 30.2815 14.1693 30.1807 14.4106 30.1221C14.6519 30.0635 14.9038 30.0482 15.1517 30.077C15.3996 30.1058 15.6387 30.1783 15.8553 30.2901C16.0718 30.402 16.2615 30.5511 16.4133 30.7288C16.5652 30.9065 16.6763 31.1094 16.7402 31.3257C16.8041 31.542 16.8196 31.7674 16.7857 31.9891C16.7518 32.2108 16.6693 32.4242 16.5428 32.6172C16.2896 33.0037 15.8759 33.2848 15.3919 33.3993C14.9079 33.5139 14.3929 33.4524 13.9594 33.2284C13.5258 33.0044 13.2089 32.6361 13.0777 32.2038C12.9466 31.7714 13.0118 31.3102 13.2592 30.9208ZM31.9635 30.2999C32.1793 30.1885 32.4174 30.1162 32.6643 30.0872C32.9113 30.0582 33.1622 30.0729 33.4028 30.1307C33.6433 30.1884 33.8688 30.288 34.0664 30.4237C34.264 30.5594 34.4297 30.7286 34.5542 30.9217C34.6787 31.1147 34.7595 31.3278 34.7919 31.5487C34.8244 31.7697 34.8078 31.9942 34.7433 32.2095C34.6788 32.4248 34.5675 32.6265 34.4159 32.8033C34.2642 32.9801 34.0751 33.1284 33.8594 33.2398C33.4237 33.4648 32.906 33.5257 32.4201 33.4091C31.9343 33.2925 31.5201 33.0079 31.2687 32.6181C31.0173 32.2282 30.9493 31.765 31.0796 31.3302C31.2099 30.8955 31.5279 30.5249 31.9635 30.2999Z" fill="url(#paint0_linear_307_25)"/>
</g>
<defs>
<filter id="filter0_dd_307_25" x="0" y="0" width="47.8125" height="43.625" filterUnits="userSpaceOnUse" color-interpolation-filters="sRGB">
<feFlood flood-opacity="0" result="BackgroundImageFix"/>
<feColorMatrix in="SourceAlpha" type="matrix" values="0 0 0 0 0 0 0 0 0 0 0 0 0 0 0 0 0 0 127 0" result="hardAlpha"/>
<feOffset dy="4"/>
<feGaussianBlur stdDeviation="2"/>
<feComposite in2="hardAlpha" operator="out"/>
<feColorMatrix type="matrix" values="0 0 0 0 0 0 0 0 0 0 0 0 0 0 0 0 0 0 0.25 0"/>
<feBlend mode="normal" in2="BackgroundImageFix" result="effect1_dropShadow_307_25"/>
<feColorMatrix in="SourceAlpha" type="matrix" values="0 0 0 0 0 0 0 0 0 0 0 0 0 0 0 0 0 0 127 0" result="hardAlpha"/>
<feOffset dy="4"/>
<feGaussianBlur stdDeviation="2"/>
<feComposite in2="hardAlpha" operator="out"/>
<feColorMatrix type="matrix" values="0 0 0 0 0 0 0 0 0 0 0 0 0 0 0 0 0 0 0.25 0"/>
<feBlend mode="normal" in2="effect1_dropShadow_307_25" result="effect2_dropShadow_307_25"/>
<feBlend mode="normal" in="SourceGraphic" in2="effect2_dropShadow_307_25" result="shape"/>
</filter>
<linearGradient id="paint0_linear_307_25" x1="4" y1="9.64844" x2="43.3051" y2="15.1373" gradientUnits="userSpaceOnUse">
<stop stop-color="#790D83"/>
<stop offset="1" stop-color="#7A5CFF"/>
</linearGradient>
</defs>
</svg>
