<svg width="17" height="16" viewBox="0 0 17 16" fill="none" xmlns="http://www.w3.org/2000/svg">
<path d="M8.02207 1C4.14588 1 1.00293 4.13438 1.00293 8C1.00293 11.8656 4.14588 15 8.02207 15C11.8983 15 15.0412 11.8656 15.0412 8C15.0412 4.13438 11.8983 1 8.02207 1ZM8.02207 13.8125C4.80392 13.8125 2.19368 11.2094 2.19368 8C2.19368 4.79063 4.80392 2.1875 8.02207 2.1875C11.2402 2.1875 13.8505 4.79063 13.8505 8C13.8505 11.2094 11.2402 13.8125 8.02207 13.8125ZM8.76942 7.6375L8.37146 7.54531V5.44688C8.96684 5.52813 9.33503 5.9 9.3977 6.35625C9.40553 6.41875 9.4588 6.46406 9.52147 6.46406H10.225C10.2986 6.46406 10.3566 6.4 10.3503 6.32656C10.2547 5.35313 9.45097 4.72813 8.37773 4.62031V4.10938C8.37773 4.04063 8.32133 3.98438 8.25239 3.98438H7.81213C7.74319 3.98438 7.68678 4.04063 7.68678 4.10938V4.625C6.57751 4.73281 5.70952 5.34375 5.70952 6.48438C5.70952 7.54063 6.48977 8.05 7.30919 8.24531L7.69618 8.34375V10.5734C7.00367 10.4812 6.61511 10.1125 6.53521 9.61563C6.5258 9.55625 6.47253 9.5125 6.41143 9.5125H5.68758C5.61394 9.5125 5.55597 9.575 5.56224 9.64844C5.63274 10.5078 6.28609 11.2984 7.68052 11.4V11.8906C7.68052 11.9594 7.73692 12.0156 7.80586 12.0156H8.25082C8.31976 12.0156 8.37616 11.9594 8.37616 11.8891L8.37303 11.3938C9.59981 11.2859 10.4772 10.6313 10.4772 9.45625C10.4756 8.37188 9.78469 7.8875 8.76942 7.6375ZM7.69462 7.38438C7.60688 7.35938 7.53324 7.33594 7.4596 7.30625C6.93003 7.11562 6.68405 6.80781 6.68405 6.41094C6.68405 5.84375 7.11491 5.52031 7.69462 5.44688V7.38438ZM8.37146 10.5781V8.48906C8.42003 8.50312 8.4639 8.51406 8.50934 8.52344C9.25042 8.74844 9.49954 9.06094 9.49954 9.54062C9.49954 10.1516 9.03891 10.5188 8.37146 10.5781Z" fill="#CCCCCC"/>
</svg>
