<svg width="14" height="13" viewBox="0 0 14 13" fill="none" xmlns="http://www.w3.org/2000/svg">
<path d="M12.125 8.52687V12.13C12.1249 12.2945 12.0594 12.4522 11.943 12.5684C11.8266 12.6847 11.6689 12.75 11.5044 12.75H1.49564C1.41356 12.7494 1.3324 12.7327 1.25679 12.7008C1.18118 12.6688 1.11261 12.6223 1.05498 12.5639C0.997345 12.5054 0.95179 12.4362 0.920912 12.3601C0.890035 12.2841 0.874439 12.2027 0.875015 12.1206V4.625H4.62502C4.79078 4.625 4.94975 4.55915 5.06696 4.44194C5.18417 4.32473 5.25002 4.16576 5.25002 4V0.25H11.5013C11.8456 0.25 12.125 0.534375 12.125 0.87V3.22312L6.50064 8.84813L6.49689 11.4969L9.15064 11.5006L12.125 8.52687ZM12.6113 4.505L13.495 5.38875L8.63377 10.25L7.74877 10.2487L7.75002 9.36625L12.6113 4.505ZM0.875015 3.375L4.00002 0.251875V3.375H0.875015Z" fill="white"/>
</svg>
