<svg width="17" height="16" viewBox="0 0 17 16" fill="none" xmlns="http://www.w3.org/2000/svg">
<path d="M12.074 2.40039C12.3373 2.40039 12.5981 2.45212 12.8414 2.55263C13.0847 2.65314 13.3058 2.80046 13.492 2.98618C13.6783 3.17189 13.826 3.39237 13.9268 3.63502C14.0276 3.87768 14.0794 4.13775 14.0794 4.40039V7.20199C13.8032 7.21451 13.5314 7.27657 13.2772 7.38519V5.60039H3.651V11.5996C3.651 11.9179 3.77777 12.2231 4.00343 12.4481C4.22909 12.6732 4.53515 12.7996 4.85428 12.7996H8.04297C8.03014 12.8396 8.01891 12.882 8.00848 12.9236L7.83922 13.5996H4.85508C4.3232 13.5996 3.8131 13.3889 3.437 13.0138C3.0609 12.6387 2.84961 12.13 2.84961 11.5996V4.39959C2.84982 3.8693 3.06121 3.36079 3.43728 2.98589C3.81336 2.61099 4.32333 2.40039 4.85508 2.40039H12.074ZM12.074 3.20039H4.85428C4.53529 3.2006 4.22943 3.32712 4.00395 3.55215C3.77846 3.77717 3.6518 4.08227 3.6518 4.40039V4.80039H13.2781V4.40039C13.2781 4.08213 13.1513 3.77691 12.9256 3.55186C12.7 3.32682 12.3939 3.20039 12.0748 3.20039H12.074ZM9.25027 12.3012L13.124 8.43719C13.4055 8.1567 13.7872 7.9992 14.1851 7.99935C14.583 7.9995 14.9646 8.15729 15.2458 8.43799C15.5271 8.7187 15.685 9.09933 15.6849 9.49616C15.6847 9.89298 15.5265 10.2735 15.245 10.554L11.3713 14.4164C11.1455 14.6416 10.8627 14.8014 10.553 14.8788L9.35134 15.1788C9.23183 15.2084 9.10667 15.2066 8.98803 15.1737C8.86939 15.1408 8.76131 15.0779 8.67427 14.991C8.58724 14.9041 8.52421 14.7963 8.49133 14.6779C8.45844 14.5596 8.45681 14.4348 8.48658 14.3156L8.7866 13.1172C8.86441 12.8084 9.02405 12.526 9.25027 12.3012Z" fill="#CCCCCC"/>
</svg>
