<svg width="14" height="14" viewBox="0 0 14 14" fill="none" xmlns="http://www.w3.org/2000/svg">
<g clip-path="url(#clip0_6_3770)">
<path fill-rule="evenodd" clip-rule="evenodd" d="M10.0621 12.2498C10.1781 12.2498 10.2894 12.2037 10.3714 12.1217C10.4535 12.0396 10.4996 11.9283 10.4996 11.8123V1.49343L13.2523 4.24706C13.3345 4.32921 13.4459 4.37536 13.5621 4.37536C13.6783 4.37536 13.7897 4.32921 13.8718 4.24706C13.954 4.1649 14.0001 4.05348 14.0001 3.93731C14.0001 3.82113 13.954 3.70971 13.8718 3.62756L10.3718 0.127556C10.3312 0.0868127 10.2829 0.0544877 10.2298 0.032432C10.1766 0.0103764 10.1196 -0.000976562 10.0621 -0.000976562C10.0045 -0.000976562 9.94755 0.0103764 9.8944 0.032432C9.84124 0.0544877 9.79297 0.0868127 9.75233 0.127556L6.25233 3.62756C6.17018 3.70971 6.12402 3.82113 6.12402 3.93731C6.12402 4.05348 6.17018 4.1649 6.25233 4.24706C6.33448 4.32921 6.4459 4.37536 6.56208 4.37536C6.67826 4.37536 6.78968 4.32921 6.87183 4.24706L9.62458 1.49343V11.8123C9.62458 11.9283 9.67067 12.0396 9.75272 12.1217C9.83476 12.2037 9.94604 12.2498 10.0621 12.2498ZM3.93708 -0.000194512C4.05311 -0.000194512 4.16439 0.0458991 4.24644 0.127946C4.32848 0.209993 4.37458 0.321273 4.37458 0.437305V10.7562L7.12733 8.00255C7.20948 7.9204 7.3209 7.87425 7.43708 7.87425C7.55325 7.87425 7.66468 7.9204 7.74683 8.00255C7.82898 8.08471 7.87513 8.19613 7.87513 8.31231C7.87513 8.42848 7.82898 8.5399 7.74683 8.62206L4.24683 12.1221C4.20619 12.1628 4.15791 12.1951 4.10476 12.2172C4.0516 12.2392 3.99462 12.2506 3.93708 12.2506C3.87953 12.2506 3.82255 12.2392 3.7694 12.2172C3.71624 12.1951 3.66797 12.1628 3.62733 12.1221L0.127326 8.62206C0.0451753 8.5399 -0.000976565 8.42848 -0.000976562 8.31231C-0.00097656 8.19613 0.0451753 8.08471 0.127326 8.00255C0.209477 7.9204 0.320897 7.87425 0.437076 7.87425C0.553255 7.87425 0.664675 7.9204 0.746826 8.00255L3.49958 10.7562V0.437305C3.49958 0.321273 3.54567 0.209993 3.62772 0.127946C3.70976 0.0458991 3.82104 -0.000194512 3.93708 -0.000194512Z" fill="#4BD569"/>
</g>
<defs>
<clipPath id="clip0_6_3770">
<rect width="14" height="14" rx="7" fill="white"/>
</clipPath>
</defs>
</svg>
