<svg width="25" height="25" viewBox="0 0 25 25" fill="none" xmlns="http://www.w3.org/2000/svg">
<path d="M12.3637 22.5C12.4394 22.5 12.5151 22.4792 12.5909 22.4375C12.6666 22.3958 12.7234 22.3542 12.7612 22.3125L22.0752 12.0625C22.3024 11.8125 22.4682 11.5312 22.5727 11.2187C22.6764 10.9062 22.7283 10.5937 22.7283 10.2812C22.7283 9.94792 22.6764 9.63 22.5727 9.3275C22.4682 9.02583 22.3024 8.76042 22.0752 8.53125L17.2478 3.21875C17.0396 2.96875 16.7984 2.78625 16.5243 2.67125C16.2494 2.55708 15.9605 2.5 15.6577 2.5C15.3737 2.5 15.0897 2.55708 14.8058 2.67125C14.5218 2.78625 14.2662 2.96875 14.0391 3.21875L13.7267 3.5625L15.828 5.90625C16.112 6.19792 16.3202 6.53125 16.4527 6.90625C16.5853 7.28125 16.6515 7.67708 16.6515 8.09375C16.6515 8.96875 16.3819 9.70292 15.8428 10.2963C15.3029 10.8904 14.6354 11.1875 13.8403 11.1875C13.4617 11.1875 13.0975 11.1146 12.7476 10.9687C12.397 10.8229 12.0892 10.6042 11.8242 10.3125L9.69446 8L4.72513 13.4687C4.66833 13.5312 4.62555 13.5992 4.59677 13.6725C4.56876 13.745 4.55475 13.8229 4.55475 13.9062C4.55475 14.0729 4.61154 14.2238 4.72513 14.3588C4.83871 14.4946 4.97123 14.5625 5.12267 14.5625C5.19839 14.5625 5.27412 14.5417 5.34984 14.5C5.42556 14.4583 5.48236 14.4167 5.52022 14.375L9.3821 10.125L10.9723 11.875L7.1388 16.125C7.08201 16.1875 7.03922 16.255 7.01045 16.3275C6.98243 16.4008 6.96842 16.4792 6.96842 16.5625C6.96842 16.7292 7.02522 16.875 7.1388 17C7.25239 17.125 7.3849 17.1875 7.53635 17.1875C7.61207 17.1875 7.68779 17.1667 7.76352 17.125C7.83924 17.0833 7.89603 17.0417 7.93389 17L11.7958 12.7812L13.386 14.5312L9.55248 18.7812C9.49568 18.8229 9.45328 18.8854 9.42526 18.9687C9.39649 19.0521 9.3821 19.1354 9.3821 19.2187C9.3821 19.3854 9.43889 19.5312 9.55248 19.6562C9.66606 19.7812 9.79858 19.8438 9.95002 19.8438C10.0257 19.8438 10.0969 19.8279 10.1636 19.7962C10.2294 19.7654 10.2908 19.7187 10.3476 19.6562L14.2094 15.4375L15.7996 17.1875L11.9378 21.4375C11.881 21.5 11.8386 21.5675 11.8105 21.64C11.7818 21.7133 11.7674 21.7917 11.7674 21.875C11.7674 22.0417 11.8291 22.1875 11.9525 22.3125C12.0752 22.4375 12.2123 22.5 12.3637 22.5ZM12.3353 25C11.6349 25 11.0151 24.7446 10.4759 24.2337C9.93601 23.7237 9.61873 23.0833 9.52408 22.3125C8.88043 22.2083 8.34091 21.9167 7.9055 21.4375C7.47009 20.9583 7.20506 20.3646 7.1104 19.6562C6.46676 19.5521 5.93215 19.2554 5.50659 18.7662C5.08027 18.2762 4.81978 17.6875 4.72513 17C4.00576 16.8958 3.4189 16.5521 2.96456 15.9687C2.51022 15.3854 2.28305 14.6979 2.28305 13.9062C2.28305 13.4896 2.35423 13.0883 2.49659 12.7025C2.63819 12.3175 2.84151 11.9792 3.10654 11.6875L9.69446 4.46875L13.4144 8.5625C13.4522 8.625 13.509 8.67167 13.5847 8.7025C13.6605 8.73417 13.7362 8.75 13.8119 8.75C13.9823 8.75 14.1243 8.69292 14.2378 8.57875C14.3514 8.46375 14.4082 8.3125 14.4082 8.125C14.4082 8.04167 14.3942 7.95833 14.3662 7.875C14.3374 7.79167 14.2946 7.72917 14.2378 7.6875L10.1772 3.21875C9.96895 2.96875 9.7274 2.78625 9.45252 2.67125C9.1784 2.55708 8.8899 2.5 8.58701 2.5C8.30304 2.5 8.01908 2.55708 7.73512 2.67125C7.45116 2.78625 7.19559 2.96875 6.96842 3.21875L2.96456 7.65625C2.79418 7.84375 2.6522 8.0625 2.53862 8.3125C2.42503 8.5625 2.34931 8.8125 2.31145 9.0625C2.27359 9.3125 2.27359 9.5675 2.31145 9.8275C2.34931 10.0883 2.42503 10.3333 2.53862 10.5625L0.89164 12.375C0.569817 11.8958 0.333182 11.3696 0.181736 10.7962C0.0302892 10.2237 -0.0265031 9.64583 0.0113585 9.0625C0.0492201 8.47917 0.181736 7.91125 0.408905 7.35875C0.636075 6.80708 0.948432 6.3125 1.34598 5.875L5.34984 1.46875C5.80418 0.989583 6.31077 0.625 6.8696 0.375C7.42768 0.125 8.00015 0 8.58701 0C9.17386 0 9.74633 0.125 10.3044 0.375C10.8632 0.625 11.3604 0.989583 11.7958 1.46875L12.1081 1.8125L12.4205 1.46875C12.8748 0.989583 13.381 0.625 13.9391 0.375C14.498 0.125 15.0708 0 15.6577 0C16.2445 0 16.8174 0.125 17.3762 0.375C17.9343 0.625 18.431 0.989583 18.8664 1.46875L23.6654 6.75C24.1008 7.22917 24.4321 7.78125 24.6592 8.40625C24.8864 9.03125 25 9.66667 25 10.3125C25 10.9583 24.8864 11.5883 24.6592 12.2025C24.4321 12.8175 24.1008 13.3646 23.6654 13.8437L14.3514 24.0625C14.0864 24.3542 13.7786 24.5833 13.428 24.75C13.0781 24.9167 12.7139 25 12.3353 25Z" fill="#9079F6"/>
</svg>
