<svg width="17" height="13" viewBox="0 0 17 13" fill="none" xmlns="http://www.w3.org/2000/svg">
<path d="M8.36864 4.10526L10.8182 6.26737V6.1579C10.8182 5.6135 10.5739 5.09141 10.1392 4.70646C9.70446 4.32152 9.11482 4.10526 8.5 4.10526H8.36864ZM5.04591 4.65263L6.24364 5.71316C6.205 5.85684 6.18182 6.00053 6.18182 6.1579C6.18182 6.70229 6.42605 7.22438 6.8608 7.60932C7.29554 7.99427 7.88518 8.21053 8.5 8.21053C8.67 8.21053 8.84 8.19 9.00227 8.15579L10.2 9.21632C9.68227 9.4421 9.11045 9.57895 8.5 9.57895C7.4753 9.57895 6.49257 9.21852 5.768 8.57694C5.04342 7.93537 4.63636 7.06521 4.63636 6.1579C4.63636 5.61737 4.79091 5.11105 5.04591 4.65263ZM0.772727 0.868947L2.53455 2.42895L2.88227 2.73684C1.60727 3.62632 0.602727 4.78947 0 6.1579C1.33682 9.16158 4.63636 11.2895 8.5 11.2895C9.69773 11.2895 10.8414 11.0842 11.8845 10.7147L12.2168 11.0021L14.4732 13L15.4545 12.1311L1.75409 0M8.5 2.73684C9.5247 2.73684 10.5074 3.09727 11.232 3.73885C11.9566 4.38042 12.3636 5.25058 12.3636 6.1579C12.3636 6.59579 12.2632 7.02 12.0855 7.40316L14.3495 9.4079C15.5086 8.55263 16.4359 7.43053 17 6.1579C15.6632 3.15421 12.3636 1.02632 8.5 1.02632C7.41818 1.02632 6.38273 1.19737 5.40909 1.50526L7.08591 2.97632C7.52636 2.82579 7.99773 2.73684 8.5 2.73684Z" fill="white" fill-opacity="0.78"/>
</svg>
