<svg width="20" height="25" viewBox="0 0 20 25" fill="none" xmlns="http://www.w3.org/2000/svg">
<path d="M11.1111 11.9444L13.8889 15.4167C14.0926 15.6713 14.1944 15.9954 14.1944 16.3889C14.1944 16.7824 14.0926 17.1065 13.8889 17.3611C13.6852 17.6157 13.4259 17.7431 13.1111 17.7431C12.7963 17.7431 12.537 17.6157 12.3333 17.3611L9.22222 13.4722C9.11111 13.3333 9.02778 13.1769 8.97222 13.0028C8.91667 12.8296 8.88889 12.6505 8.88889 12.4653V6.94444C8.88889 6.55093 8.99556 6.22083 9.20889 5.95417C9.42148 5.68843 9.68519 5.55556 10 5.55556C10.3148 5.55556 10.5789 5.68843 10.7922 5.95417C11.0048 6.22083 11.1111 6.55093 11.1111 6.94444V11.9444ZM10 25C7.75926 25 5.75 24.1722 3.97222 22.5167C2.19444 20.862 1 18.7037 0.388889 16.0417C0.296296 15.625 0.328889 15.2315 0.486667 14.8611C0.643704 14.4907 0.888889 14.2593 1.22222 14.1667C1.53704 14.0741 1.81963 14.1606 2.07 14.4264C2.31963 14.6931 2.49074 15.0231 2.58333 15.4167C3.06481 17.4537 3.99556 19.0972 5.37556 20.3472C6.75481 21.5972 8.2963 22.2222 10 22.2222C12.1667 22.2222 14.0044 21.2787 15.5133 19.3917C17.023 17.5056 17.7778 15.2083 17.7778 12.5C17.7778 9.79167 17.023 7.49398 15.5133 5.60694C14.0044 3.72083 12.1667 2.77778 10 2.77778C8.72222 2.77778 7.52778 3.14815 6.41667 3.88889C5.30556 4.62963 4.37037 5.64815 3.61111 6.94444H5.55556C5.87037 6.94444 6.13445 7.07731 6.34778 7.34305C6.56037 7.60972 6.66667 7.93981 6.66667 8.33333C6.66667 8.72685 6.56037 9.05648 6.34778 9.32222C6.13445 9.58889 5.87037 9.72222 5.55556 9.72222H1.11111C0.796296 9.72222 0.532593 9.58889 0.32 9.32222C0.106667 9.05648 0 8.72685 0 8.33333V2.77778C0 2.38426 0.106667 2.05417 0.32 1.7875C0.532593 1.52176 0.796296 1.38889 1.11111 1.38889C1.42593 1.38889 1.69 1.52176 1.90333 1.7875C2.11593 2.05417 2.22222 2.38426 2.22222 2.77778V4.65278C3.16667 3.1713 4.31963 2.02546 5.68111 1.21528C7.04185 0.405093 8.48148 0 10 0C11.3889 0 12.69 0.329629 13.9033 0.988889C15.1159 1.64907 16.1715 2.54028 17.07 3.6625C17.9678 4.78565 18.6807 6.10509 19.2089 7.62083C19.7363 9.1375 20 10.7639 20 12.5C20 14.2361 19.7363 15.862 19.2089 17.3778C18.6807 18.8944 17.9678 20.2139 17.07 21.3361C16.1715 22.4593 15.1159 23.3509 13.9033 24.0111C12.69 24.6704 11.3889 25 10 25Z" fill="white"/>
</svg>
