<svg width="20" height="25" viewBox="0 0 20 25" fill="none" xmlns="http://www.w3.org/2000/svg">
<path d="M17.5 8.33333H16.25V5.95238C16.25 2.66667 13.45 0 10 0C6.55 0 3.75 2.66667 3.75 5.95238V8.33333H2.5C1.125 8.33333 0 9.40476 0 10.7143V22.619C0 23.9286 1.125 25 2.5 25H17.5C18.875 25 20 23.9286 20 22.619V10.7143C20 9.40476 18.875 8.33333 17.5 8.33333ZM6.25 5.95238C6.25 3.97619 7.925 2.38095 10 2.38095C12.075 2.38095 13.75 3.97619 13.75 5.95238V8.33333H6.25V5.95238ZM17.5 22.619H2.5V10.7143H17.5V22.619ZM10 19.0476C11.375 19.0476 12.5 17.9762 12.5 16.6667C12.5 15.3571 11.375 14.2857 10 14.2857C8.625 14.2857 7.5 15.3571 7.5 16.6667C7.5 17.9762 8.625 19.0476 10 19.0476Z" fill="white"/>
</svg>
