<svg width="160" height="54" viewBox="0 0 160 54" fill="none" xmlns="http://www.w3.org/2000/svg">
<g filter="url(#filter0_b_559_13)">
<path d="M118 8H127V28H118V8Z" fill="white" fill-opacity="0.18"/>
</g>
<g filter="url(#filter1_b_559_13)">
<path d="M118 8H127V28H118V8Z" fill="white" fill-opacity="0.18"/>
</g>
<g filter="url(#filter2_b_559_13)">
<path d="M122 7H123V8H122V7Z" fill="white" fill-opacity="0.18"/>
</g>
<g filter="url(#filter3_b_559_13)">
<path d="M122 7H123V8H122V7Z" fill="white" fill-opacity="0.18"/>
</g>
<g filter="url(#filter4_b_559_13)">
<path d="M122 28H123V33H122V28Z" fill="white" fill-opacity="0.18"/>
</g>
<g filter="url(#filter5_b_559_13)">
<path d="M122 28H123V33H122V28Z" fill="white" fill-opacity="0.18"/>
</g>
<g filter="url(#filter6_b_559_13)">
<path d="M151 8H160V53H151V8Z" fill="white" fill-opacity="0.18"/>
</g>
<g filter="url(#filter7_b_559_13)">
<path d="M151 8H160V53H151V8Z" fill="white" fill-opacity="0.18"/>
</g>
<g filter="url(#filter8_b_559_13)">
<path d="M155 0H156V8H155V0Z" fill="white" fill-opacity="0.18"/>
</g>
<g filter="url(#filter9_b_559_13)">
<path d="M155 0H156V8H155V0Z" fill="white" fill-opacity="0.18"/>
</g>
<g filter="url(#filter10_b_559_13)">
<path d="M129 27.4642H138V40.8571H129V27.4642Z" fill="white" fill-opacity="0.18"/>
</g>
<g filter="url(#filter11_b_559_13)">
<path d="M129 27.4642H138V40.8571H129V27.4642Z" fill="white" fill-opacity="0.18"/>
</g>
<g filter="url(#filter12_b_559_13)">
<path d="M133 40.8572H134V48H133V40.8572Z" fill="white" fill-opacity="0.18"/>
</g>
<g filter="url(#filter13_b_559_13)">
<path d="M133 40.8572H134V48H133V40.8572Z" fill="white" fill-opacity="0.18"/>
</g>
<g filter="url(#filter14_b_559_13)">
<path d="M133 23H134V27.4643H133V23Z" fill="white" fill-opacity="0.18"/>
</g>
<g filter="url(#filter15_b_559_13)">
<path d="M133 23H134V27.4643H133V23Z" fill="white" fill-opacity="0.18"/>
</g>
<g filter="url(#filter16_b_559_13)">
<path d="M144 53H145V54H144V53Z" fill="white" fill-opacity="0.18"/>
</g>
<g filter="url(#filter17_b_559_13)">
<path d="M144 53H145V54H144V53Z" fill="white" fill-opacity="0.18"/>
</g>
<g filter="url(#filter18_b_559_13)">
<path d="M144 35H145V43H144V35Z" fill="white" fill-opacity="0.18"/>
</g>
<g filter="url(#filter19_b_559_13)">
<path d="M144 35H145V43H144V35Z" fill="white" fill-opacity="0.18"/>
</g>
<g filter="url(#filter20_b_559_13)">
<path d="M140 43H149V53H140V43Z" fill="white" fill-opacity="0.18"/>
</g>
<g filter="url(#filter21_b_559_13)">
<path d="M140 43H149V53H140V43Z" fill="white" fill-opacity="0.18"/>
</g>
<path d="M45.0773 48L41.3813 41.472H39.7973V48H36.4373V31.248H42.7253C44.0213 31.248 45.1253 31.48 46.0373 31.944C46.9493 32.392 47.6293 33.008 48.0773 33.792C48.5413 34.56 48.7733 35.424 48.7733 36.384C48.7733 37.488 48.4533 38.488 47.8133 39.384C47.1733 40.264 46.2213 40.872 44.9573 41.208L48.9653 48H45.0773ZM39.7973 38.952H42.6053C43.5173 38.952 44.1973 38.736 44.6453 38.304C45.0933 37.856 45.3173 37.24 45.3173 36.456C45.3173 35.688 45.0933 35.096 44.6453 34.68C44.1973 34.248 43.5173 34.032 42.6053 34.032H39.7973V38.952ZM53.5163 33.12C52.9243 33.12 52.4283 32.936 52.0283 32.568C51.6443 32.184 51.4523 31.712 51.4523 31.152C51.4523 30.592 51.6443 30.128 52.0283 29.76C52.4283 29.376 52.9243 29.184 53.5163 29.184C54.1083 29.184 54.5963 29.376 54.9803 29.76C55.3803 30.128 55.5803 30.592 55.5803 31.152C55.5803 31.712 55.3803 32.184 54.9803 32.568C54.5963 32.936 54.1083 33.12 53.5163 33.12ZM55.1723 34.704V48H51.8123V34.704H55.1723ZM57.6279 41.304C57.6279 39.96 57.8919 38.768 58.4199 37.728C58.9639 36.688 59.6999 35.888 60.6279 35.328C61.5559 34.768 62.5879 34.488 63.7239 34.488C64.5879 34.488 65.4119 34.68 66.1959 35.064C66.9799 35.432 67.6039 35.928 68.0679 36.552V30.24H71.4759V48H68.0679V46.032C67.6519 46.688 67.0679 47.216 66.3159 47.616C65.5639 48.016 64.6919 48.216 63.6999 48.216C62.5799 48.216 61.5559 47.928 60.6279 47.352C59.6999 46.776 58.9639 45.968 58.4199 44.928C57.8919 43.872 57.6279 42.664 57.6279 41.304ZM68.0919 41.352C68.0919 40.536 67.9319 39.84 67.6119 39.264C67.2919 38.672 66.8599 38.224 66.3159 37.92C65.7719 37.6 65.1879 37.44 64.5639 37.44C63.9399 37.44 63.3639 37.592 62.8359 37.896C62.3079 38.2 61.8759 38.648 61.5399 39.24C61.2199 39.816 61.0599 40.504 61.0599 41.304C61.0599 42.104 61.2199 42.808 61.5399 43.416C61.8759 44.008 62.3079 44.464 62.8359 44.784C63.3799 45.104 63.9559 45.264 64.5639 45.264C65.1879 45.264 65.7719 45.112 66.3159 44.808C66.8599 44.488 67.2919 44.04 67.6119 43.464C67.9319 42.872 68.0919 42.168 68.0919 41.352ZM87.1176 41.064C87.1176 41.544 87.0856 41.976 87.0216 42.36H77.3016C77.3816 43.32 77.7176 44.072 78.3096 44.616C78.9016 45.16 79.6296 45.432 80.4936 45.432C81.7416 45.432 82.6296 44.896 83.1576 43.824H86.7816C86.3976 45.104 85.6616 46.16 84.5736 46.992C83.4856 47.808 82.1496 48.216 80.5656 48.216C79.2856 48.216 78.1336 47.936 77.1096 47.376C76.1016 46.8 75.3096 45.992 74.7336 44.952C74.1736 43.912 73.8936 42.712 73.8936 41.352C73.8936 39.976 74.1736 38.768 74.7336 37.728C75.2936 36.688 76.0776 35.888 77.0856 35.328C78.0936 34.768 79.2536 34.488 80.5656 34.488C81.8296 34.488 82.9576 34.76 83.9496 35.304C84.9576 35.848 85.7336 36.624 86.2776 37.632C86.8376 38.624 87.1176 39.768 87.1176 41.064ZM83.6376 40.104C83.6216 39.24 83.3096 38.552 82.7016 38.04C82.0936 37.512 81.3496 37.248 80.4696 37.248C79.6376 37.248 78.9336 37.504 78.3576 38.016C77.7976 38.512 77.4536 39.208 77.3256 40.104H83.6376ZM92.9301 36.768C93.3621 36.064 93.9221 35.512 94.6101 35.112C95.3141 34.712 96.1141 34.512 97.0101 34.512V38.04H96.1221C95.0661 38.04 94.2661 38.288 93.7221 38.784C93.1941 39.28 92.9301 40.144 92.9301 41.376V48H89.5701V34.704H92.9301V36.768ZM102.345 45.24H108.273V48H98.5292V45.288L104.337 37.464H98.5532V34.704H108.201V37.416L102.345 45.24Z" fill="white"/>
<path d="M16.1838 17.6C16.1838 15.952 16.5518 14.48 17.2878 13.184C18.0398 11.872 19.0558 10.856 20.3358 10.136C21.6318 9.4 23.0798 9.032 24.6798 9.032C26.5518 9.032 28.1918 9.512 29.5998 10.472C31.0078 11.432 31.9918 12.76 32.5518 14.456H28.6878C28.3038 13.656 27.7598 13.056 27.0558 12.656C26.3678 12.256 25.5678 12.056 24.6558 12.056C23.6798 12.056 22.8078 12.288 22.0398 12.752C21.2878 13.2 20.6958 13.84 20.2638 14.672C19.8478 15.504 19.6398 16.48 19.6398 17.6C19.6398 18.704 19.8478 19.68 20.2638 20.528C20.6958 21.36 21.2878 22.008 22.0398 22.472C22.8078 22.92 23.6798 23.144 24.6558 23.144C25.5678 23.144 26.3678 22.944 27.0558 22.544C27.7598 22.128 28.3038 21.52 28.6878 20.72H32.5518C31.9918 22.432 31.0078 23.768 29.5998 24.728C28.2078 25.672 26.5678 26.144 24.6798 26.144C23.0798 26.144 21.6318 25.784 20.3358 25.064C19.0558 24.328 18.0398 23.312 17.2878 22.016C16.5518 20.72 16.1838 19.248 16.1838 17.6ZM34.5576 19.304C34.5576 17.96 34.8216 16.768 35.3496 15.728C35.8936 14.688 36.6216 13.888 37.5336 13.328C38.4616 12.768 39.4936 12.488 40.6296 12.488C41.6216 12.488 42.4856 12.688 43.2216 13.088C43.9736 13.488 44.5736 13.992 45.0216 14.6V12.704H48.4056V26H45.0216V24.056C44.5896 24.68 43.9896 25.2 43.2216 25.616C42.4696 26.016 41.5976 26.216 40.6056 26.216C39.4856 26.216 38.4616 25.928 37.5336 25.352C36.6216 24.776 35.8936 23.968 35.3496 22.928C34.8216 21.872 34.5576 20.664 34.5576 19.304ZM45.0216 19.352C45.0216 18.536 44.8616 17.84 44.5416 17.264C44.2216 16.672 43.7896 16.224 43.2456 15.92C42.7016 15.6 42.1176 15.44 41.4936 15.44C40.8696 15.44 40.2936 15.592 39.7656 15.896C39.2376 16.2 38.8056 16.648 38.4696 17.24C38.1496 17.816 37.9896 18.504 37.9896 19.304C37.9896 20.104 38.1496 20.808 38.4696 21.416C38.8056 22.008 39.2376 22.464 39.7656 22.784C40.3096 23.104 40.8856 23.264 41.4936 23.264C42.1176 23.264 42.7016 23.112 43.2456 22.808C43.7896 22.488 44.2216 22.04 44.5416 21.464C44.8616 20.872 45.0216 20.168 45.0216 19.352ZM59.0553 12.512C60.6393 12.512 61.9193 13.016 62.8953 14.024C63.8713 15.016 64.3593 16.408 64.3593 18.2V26H60.9993V18.656C60.9993 17.6 60.7353 16.792 60.2073 16.232C59.6793 15.656 58.9593 15.368 58.0473 15.368C57.1193 15.368 56.3833 15.656 55.8393 16.232C55.3113 16.792 55.0473 17.6 55.0473 18.656V26H51.6873V12.704H55.0473V14.36C55.4953 13.784 56.0633 13.336 56.7513 13.016C57.4553 12.68 58.2233 12.512 59.0553 12.512ZM66.6904 19.304C66.6904 17.96 66.9544 16.768 67.4824 15.728C68.0264 14.688 68.7624 13.888 69.6904 13.328C70.6184 12.768 71.6504 12.488 72.7864 12.488C73.6504 12.488 74.4744 12.68 75.2584 13.064C76.0424 13.432 76.6664 13.928 77.1304 14.552V8.24H80.5384V26H77.1304V24.032C76.7144 24.688 76.1304 25.216 75.3784 25.616C74.6264 26.016 73.7544 26.216 72.7624 26.216C71.6424 26.216 70.6184 25.928 69.6904 25.352C68.7624 24.776 68.0264 23.968 67.4824 22.928C66.9544 21.872 66.6904 20.664 66.6904 19.304ZM77.1544 19.352C77.1544 18.536 76.9944 17.84 76.6744 17.264C76.3544 16.672 75.9224 16.224 75.3784 15.92C74.8344 15.6 74.2504 15.44 73.6264 15.44C73.0024 15.44 72.4264 15.592 71.8984 15.896C71.3704 16.2 70.9384 16.648 70.6024 17.24C70.2824 17.816 70.1224 18.504 70.1224 19.304C70.1224 20.104 70.2824 20.808 70.6024 21.416C70.9384 22.008 71.3704 22.464 71.8984 22.784C72.4424 23.104 73.0184 23.264 73.6264 23.264C74.2504 23.264 74.8344 23.112 75.3784 22.808C75.9224 22.488 76.3544 22.04 76.6744 21.464C76.9944 20.872 77.1544 20.168 77.1544 19.352ZM87.1801 8.24V26H83.8201V8.24H87.1801ZM102.86 19.064C102.86 19.544 102.828 19.976 102.764 20.36H93.0438C93.1238 21.32 93.4598 22.072 94.0518 22.616C94.6438 23.16 95.3718 23.432 96.2358 23.432C97.4838 23.432 98.3718 22.896 98.8998 21.824H102.524C102.14 23.104 101.404 24.16 100.316 24.992C99.2278 25.808 97.8918 26.216 96.3078 26.216C95.0278 26.216 93.8758 25.936 92.8518 25.376C91.8438 24.8 91.0518 23.992 90.4758 22.952C89.9158 21.912 89.6357 20.712 89.6357 19.352C89.6357 17.976 89.9158 16.768 90.4758 15.728C91.0358 14.688 91.8198 13.888 92.8278 13.328C93.8358 12.768 94.9958 12.488 96.3078 12.488C97.5718 12.488 98.6998 12.76 99.6918 13.304C100.7 13.848 101.476 14.624 102.02 15.632C102.58 16.624 102.86 17.768 102.86 19.064ZM99.3798 18.104C99.3638 17.24 99.0518 16.552 98.4438 16.04C97.8358 15.512 97.0918 15.248 96.2118 15.248C95.3798 15.248 94.6758 15.504 94.0998 16.016C93.5398 16.512 93.1958 17.208 93.0678 18.104H99.3798Z" fill="white"/>
<defs>
<filter id="filter0_b_559_13" x="89.2" y="-20.8" width="66.6" height="77.6" filterUnits="userSpaceOnUse" color-interpolation-filters="sRGB">
<feFlood flood-opacity="0" result="BackgroundImageFix"/>
<feGaussianBlur in="BackgroundImageFix" stdDeviation="14.4"/>
<feComposite in2="SourceAlpha" operator="in" result="effect1_backgroundBlur_559_13"/>
<feBlend mode="normal" in="SourceGraphic" in2="effect1_backgroundBlur_559_13" result="shape"/>
</filter>
<filter id="filter1_b_559_13" x="89.2" y="-20.8" width="66.6" height="77.6" filterUnits="userSpaceOnUse" color-interpolation-filters="sRGB">
<feFlood flood-opacity="0" result="BackgroundImageFix"/>
<feGaussianBlur in="BackgroundImageFix" stdDeviation="14.4"/>
<feComposite in2="SourceAlpha" operator="in" result="effect1_backgroundBlur_559_13"/>
<feBlend mode="normal" in="SourceGraphic" in2="effect1_backgroundBlur_559_13" result="shape"/>
</filter>
<filter id="filter2_b_559_13" x="93.2" y="-21.8" width="58.6" height="58.6" filterUnits="userSpaceOnUse" color-interpolation-filters="sRGB">
<feFlood flood-opacity="0" result="BackgroundImageFix"/>
<feGaussianBlur in="BackgroundImageFix" stdDeviation="14.4"/>
<feComposite in2="SourceAlpha" operator="in" result="effect1_backgroundBlur_559_13"/>
<feBlend mode="normal" in="SourceGraphic" in2="effect1_backgroundBlur_559_13" result="shape"/>
</filter>
<filter id="filter3_b_559_13" x="93.2" y="-21.8" width="58.6" height="58.6" filterUnits="userSpaceOnUse" color-interpolation-filters="sRGB">
<feFlood flood-opacity="0" result="BackgroundImageFix"/>
<feGaussianBlur in="BackgroundImageFix" stdDeviation="14.4"/>
<feComposite in2="SourceAlpha" operator="in" result="effect1_backgroundBlur_559_13"/>
<feBlend mode="normal" in="SourceGraphic" in2="effect1_backgroundBlur_559_13" result="shape"/>
</filter>
<filter id="filter4_b_559_13" x="93.2" y="-0.799999" width="58.6" height="62.6" filterUnits="userSpaceOnUse" color-interpolation-filters="sRGB">
<feFlood flood-opacity="0" result="BackgroundImageFix"/>
<feGaussianBlur in="BackgroundImageFix" stdDeviation="14.4"/>
<feComposite in2="SourceAlpha" operator="in" result="effect1_backgroundBlur_559_13"/>
<feBlend mode="normal" in="SourceGraphic" in2="effect1_backgroundBlur_559_13" result="shape"/>
</filter>
<filter id="filter5_b_559_13" x="93.2" y="-0.799999" width="58.6" height="62.6" filterUnits="userSpaceOnUse" color-interpolation-filters="sRGB">
<feFlood flood-opacity="0" result="BackgroundImageFix"/>
<feGaussianBlur in="BackgroundImageFix" stdDeviation="14.4"/>
<feComposite in2="SourceAlpha" operator="in" result="effect1_backgroundBlur_559_13"/>
<feBlend mode="normal" in="SourceGraphic" in2="effect1_backgroundBlur_559_13" result="shape"/>
</filter>
<filter id="filter6_b_559_13" x="122.2" y="-20.8" width="66.6" height="102.6" filterUnits="userSpaceOnUse" color-interpolation-filters="sRGB">
<feFlood flood-opacity="0" result="BackgroundImageFix"/>
<feGaussianBlur in="BackgroundImageFix" stdDeviation="14.4"/>
<feComposite in2="SourceAlpha" operator="in" result="effect1_backgroundBlur_559_13"/>
<feBlend mode="normal" in="SourceGraphic" in2="effect1_backgroundBlur_559_13" result="shape"/>
</filter>
<filter id="filter7_b_559_13" x="122.2" y="-20.8" width="66.6" height="102.6" filterUnits="userSpaceOnUse" color-interpolation-filters="sRGB">
<feFlood flood-opacity="0" result="BackgroundImageFix"/>
<feGaussianBlur in="BackgroundImageFix" stdDeviation="14.4"/>
<feComposite in2="SourceAlpha" operator="in" result="effect1_backgroundBlur_559_13"/>
<feBlend mode="normal" in="SourceGraphic" in2="effect1_backgroundBlur_559_13" result="shape"/>
</filter>
<filter id="filter8_b_559_13" x="126.2" y="-28.8" width="58.6" height="65.6" filterUnits="userSpaceOnUse" color-interpolation-filters="sRGB">
<feFlood flood-opacity="0" result="BackgroundImageFix"/>
<feGaussianBlur in="BackgroundImageFix" stdDeviation="14.4"/>
<feComposite in2="SourceAlpha" operator="in" result="effect1_backgroundBlur_559_13"/>
<feBlend mode="normal" in="SourceGraphic" in2="effect1_backgroundBlur_559_13" result="shape"/>
</filter>
<filter id="filter9_b_559_13" x="126.2" y="-28.8" width="58.6" height="65.6" filterUnits="userSpaceOnUse" color-interpolation-filters="sRGB">
<feFlood flood-opacity="0" result="BackgroundImageFix"/>
<feGaussianBlur in="BackgroundImageFix" stdDeviation="14.4"/>
<feComposite in2="SourceAlpha" operator="in" result="effect1_backgroundBlur_559_13"/>
<feBlend mode="normal" in="SourceGraphic" in2="effect1_backgroundBlur_559_13" result="shape"/>
</filter>
<filter id="filter10_b_559_13" x="100.2" y="-1.33577" width="66.6" height="70.9928" filterUnits="userSpaceOnUse" color-interpolation-filters="sRGB">
<feFlood flood-opacity="0" result="BackgroundImageFix"/>
<feGaussianBlur in="BackgroundImageFix" stdDeviation="14.4"/>
<feComposite in2="SourceAlpha" operator="in" result="effect1_backgroundBlur_559_13"/>
<feBlend mode="normal" in="SourceGraphic" in2="effect1_backgroundBlur_559_13" result="shape"/>
</filter>
<filter id="filter11_b_559_13" x="100.2" y="-1.33577" width="66.6" height="70.9928" filterUnits="userSpaceOnUse" color-interpolation-filters="sRGB">
<feFlood flood-opacity="0" result="BackgroundImageFix"/>
<feGaussianBlur in="BackgroundImageFix" stdDeviation="14.4"/>
<feComposite in2="SourceAlpha" operator="in" result="effect1_backgroundBlur_559_13"/>
<feBlend mode="normal" in="SourceGraphic" in2="effect1_backgroundBlur_559_13" result="shape"/>
</filter>
<filter id="filter12_b_559_13" x="104.2" y="12.0572" width="58.6" height="64.7428" filterUnits="userSpaceOnUse" color-interpolation-filters="sRGB">
<feFlood flood-opacity="0" result="BackgroundImageFix"/>
<feGaussianBlur in="BackgroundImageFix" stdDeviation="14.4"/>
<feComposite in2="SourceAlpha" operator="in" result="effect1_backgroundBlur_559_13"/>
<feBlend mode="normal" in="SourceGraphic" in2="effect1_backgroundBlur_559_13" result="shape"/>
</filter>
<filter id="filter13_b_559_13" x="104.2" y="12.0572" width="58.6" height="64.7428" filterUnits="userSpaceOnUse" color-interpolation-filters="sRGB">
<feFlood flood-opacity="0" result="BackgroundImageFix"/>
<feGaussianBlur in="BackgroundImageFix" stdDeviation="14.4"/>
<feComposite in2="SourceAlpha" operator="in" result="effect1_backgroundBlur_559_13"/>
<feBlend mode="normal" in="SourceGraphic" in2="effect1_backgroundBlur_559_13" result="shape"/>
</filter>
<filter id="filter14_b_559_13" x="104.2" y="-5.8" width="58.6" height="62.0642" filterUnits="userSpaceOnUse" color-interpolation-filters="sRGB">
<feFlood flood-opacity="0" result="BackgroundImageFix"/>
<feGaussianBlur in="BackgroundImageFix" stdDeviation="14.4"/>
<feComposite in2="SourceAlpha" operator="in" result="effect1_backgroundBlur_559_13"/>
<feBlend mode="normal" in="SourceGraphic" in2="effect1_backgroundBlur_559_13" result="shape"/>
</filter>
<filter id="filter15_b_559_13" x="104.2" y="-5.8" width="58.6" height="62.0642" filterUnits="userSpaceOnUse" color-interpolation-filters="sRGB">
<feFlood flood-opacity="0" result="BackgroundImageFix"/>
<feGaussianBlur in="BackgroundImageFix" stdDeviation="14.4"/>
<feComposite in2="SourceAlpha" operator="in" result="effect1_backgroundBlur_559_13"/>
<feBlend mode="normal" in="SourceGraphic" in2="effect1_backgroundBlur_559_13" result="shape"/>
</filter>
<filter id="filter16_b_559_13" x="115.2" y="24.2" width="58.6" height="58.6" filterUnits="userSpaceOnUse" color-interpolation-filters="sRGB">
<feFlood flood-opacity="0" result="BackgroundImageFix"/>
<feGaussianBlur in="BackgroundImageFix" stdDeviation="14.4"/>
<feComposite in2="SourceAlpha" operator="in" result="effect1_backgroundBlur_559_13"/>
<feBlend mode="normal" in="SourceGraphic" in2="effect1_backgroundBlur_559_13" result="shape"/>
</filter>
<filter id="filter17_b_559_13" x="115.2" y="24.2" width="58.6" height="58.6" filterUnits="userSpaceOnUse" color-interpolation-filters="sRGB">
<feFlood flood-opacity="0" result="BackgroundImageFix"/>
<feGaussianBlur in="BackgroundImageFix" stdDeviation="14.4"/>
<feComposite in2="SourceAlpha" operator="in" result="effect1_backgroundBlur_559_13"/>
<feBlend mode="normal" in="SourceGraphic" in2="effect1_backgroundBlur_559_13" result="shape"/>
</filter>
<filter id="filter18_b_559_13" x="115.2" y="6.2" width="58.6" height="65.6" filterUnits="userSpaceOnUse" color-interpolation-filters="sRGB">
<feFlood flood-opacity="0" result="BackgroundImageFix"/>
<feGaussianBlur in="BackgroundImageFix" stdDeviation="14.4"/>
<feComposite in2="SourceAlpha" operator="in" result="effect1_backgroundBlur_559_13"/>
<feBlend mode="normal" in="SourceGraphic" in2="effect1_backgroundBlur_559_13" result="shape"/>
</filter>
<filter id="filter19_b_559_13" x="115.2" y="6.2" width="58.6" height="65.6" filterUnits="userSpaceOnUse" color-interpolation-filters="sRGB">
<feFlood flood-opacity="0" result="BackgroundImageFix"/>
<feGaussianBlur in="BackgroundImageFix" stdDeviation="14.4"/>
<feComposite in2="SourceAlpha" operator="in" result="effect1_backgroundBlur_559_13"/>
<feBlend mode="normal" in="SourceGraphic" in2="effect1_backgroundBlur_559_13" result="shape"/>
</filter>
<filter id="filter20_b_559_13" x="111.2" y="14.2" width="66.6" height="67.6" filterUnits="userSpaceOnUse" color-interpolation-filters="sRGB">
<feFlood flood-opacity="0" result="BackgroundImageFix"/>
<feGaussianBlur in="BackgroundImageFix" stdDeviation="14.4"/>
<feComposite in2="SourceAlpha" operator="in" result="effect1_backgroundBlur_559_13"/>
<feBlend mode="normal" in="SourceGraphic" in2="effect1_backgroundBlur_559_13" result="shape"/>
</filter>
<filter id="filter21_b_559_13" x="111.2" y="14.2" width="66.6" height="67.6" filterUnits="userSpaceOnUse" color-interpolation-filters="sRGB">
<feFlood flood-opacity="0" result="BackgroundImageFix"/>
<feGaussianBlur in="BackgroundImageFix" stdDeviation="14.4"/>
<feComposite in2="SourceAlpha" operator="in" result="effect1_backgroundBlur_559_13"/>
<feBlend mode="normal" in="SourceGraphic" in2="effect1_backgroundBlur_559_13" result="shape"/>
</filter>
</defs>
</svg>
