<svg width="18" height="18" viewBox="0 0 18 18" fill="none" xmlns="http://www.w3.org/2000/svg">
<path d="M8.09972 9.00059C8.09972 9.23928 8.19454 9.4682 8.36332 9.63698C8.5321 9.80577 8.76102 9.90059 8.99972 9.90059C9.23841 9.90059 9.46733 9.80577 9.63611 9.63698C9.80489 9.4682 9.89972 9.23928 9.89972 9.00059C9.89972 8.76189 9.80489 8.53297 9.63611 8.36419C9.46733 8.19541 9.23841 8.10059 8.99972 8.10059C8.76102 8.10059 8.5321 8.19541 8.36332 8.36419C8.19454 8.53297 8.09972 8.76189 8.09972 9.00059ZM11.8497 9.00059C11.8497 9.23928 11.9445 9.4682 12.1133 9.63698C12.2821 9.80577 12.511 9.90059 12.7497 9.90059C12.9884 9.90059 13.2173 9.80577 13.3861 9.63698C13.5549 9.4682 13.6497 9.23928 13.6497 9.00059C13.6497 8.76189 13.5549 8.53297 13.3861 8.36419C13.2173 8.19541 12.9884 8.10059 12.7497 8.10059C12.511 8.10059 12.2821 8.19541 12.1133 8.36419C11.9445 8.53297 11.8497 8.76189 11.8497 9.00059ZM4.34972 9.00059C4.34972 9.23928 4.44454 9.4682 4.61332 9.63698C4.7821 9.80577 5.01102 9.90059 5.24972 9.90059C5.48841 9.90059 5.71733 9.80577 5.88611 9.63698C6.05489 9.4682 6.14972 9.23928 6.14972 9.00059C6.14972 8.76189 6.05489 8.53297 5.88611 8.36419C5.71733 8.19541 5.48841 8.10059 5.24972 8.10059C5.01102 8.10059 4.7821 8.19541 4.61332 8.36419C4.44454 8.53297 4.34972 8.76189 4.34972 9.00059ZM16.7472 5.74559C16.3235 4.73871 15.716 3.83496 14.9416 3.05871C14.1726 2.28695 13.2598 1.6735 12.2547 1.25309C11.2235 0.819961 10.1285 0.600586 8.99972 0.600586H8.96222C7.82597 0.606211 6.72534 0.831211 5.69034 1.27371C4.69389 1.69844 3.78959 2.31298 3.02784 3.08309C2.26097 3.85746 1.65909 4.75746 1.24284 5.76059C0.811591 6.79934 0.594091 7.90371 0.599716 9.03996C0.606078 10.3421 0.914138 11.625 1.49972 12.7881V15.6381C1.49972 15.8668 1.59059 16.0862 1.75234 16.248C1.91409 16.4097 2.13347 16.5006 2.36222 16.5006H5.21409C6.37714 17.0862 7.66008 17.3942 8.96222 17.4006H9.00159C10.1247 17.4006 11.2141 17.1831 12.2397 16.7575C13.2397 16.3421 14.1492 15.7358 14.9172 14.9725C15.6916 14.2056 16.301 13.3093 16.7266 12.31C17.1691 11.275 17.3941 10.1743 17.3997 9.03809C17.4053 7.89621 17.1841 6.78809 16.7472 5.74559ZM13.9141 13.9581C12.5997 15.2593 10.856 15.9756 8.99972 15.9756H8.96784C7.83722 15.97 6.71409 15.6887 5.72222 15.16L5.56472 15.0756H2.92472V12.4356L2.84034 12.2781C2.31159 11.2862 2.03034 10.1631 2.02472 9.03246C2.01722 7.16309 2.73159 5.40809 4.04222 4.08621C5.35097 2.76434 7.10034 2.03309 8.96972 2.02559H9.00159C9.93909 2.02559 10.8485 2.20746 11.7053 2.56746C12.5416 2.91809 13.2916 3.42246 13.9366 4.06746C14.5797 4.71059 15.086 5.46246 15.4366 6.29871C15.8003 7.16496 15.9822 8.08371 15.9785 9.03246C15.9672 10.9 15.2341 12.6493 13.9141 13.9581Z" fill="white"/>
</svg>
