<?xml version="1.0" standalone="no"?>
<!DOCTYPE svg PUBLIC "-//W3C//DTD SVG 20010904//EN"
 "http://www.w3.org/TR/2001/REC-SVG-20010904/DTD/svg10.dtd">
<svg version="1.0" xmlns="http://www.w3.org/2000/svg"
 width="612.000000pt" height="408.000000pt" viewBox="0 0 612.000000 408.000000"
 preserveAspectRatio="xMidYMid meet">

<g transform="translate(0.000000,408.000000) scale(0.100000,-0.100000)"
fill="#000000" stroke="none">
<path d="M3130 3960 c-11 -7 -8 -11 15 -21 29 -11 29 -12 9 -21 -16 -7 -31 -5
-63 11 -34 18 -44 19 -61 9 -11 -7 -20 -16 -20 -19 0 -4 -18 -9 -39 -13 -24
-4 -47 -15 -58 -30 -10 -13 -28 -26 -40 -30 -11 -4 -31 -16 -44 -27 -12 -11
-34 -22 -48 -25 -72 -15 -136 -64 -147 -111 -8 -29 2 -41 18 -25 9 9 9 12 0
12 -7 0 -12 4 -12 9 0 13 58 66 73 67 6 0 22 4 35 8 13 4 28 3 36 -3 7 -6 16
-8 19 -4 4 3 7 1 7 -6 0 -7 -5 -11 -12 -9 -6 2 -19 -3 -29 -11 -9 -9 -35 -27
-58 -41 -22 -13 -41 -30 -41 -37 0 -6 -16 -24 -36 -39 -40 -31 -94 -117 -94
-151 0 -12 -7 -28 -15 -37 -8 -8 -15 -19 -15 -25 0 -6 -4 -11 -9 -11 -12 0
-42 -160 -41 -217 1 -27 -3 -86 -8 -133 -13 -120 -7 -245 16 -310 10 -30 20
-82 21 -115 l3 -60 -21 19 c-12 11 -21 25 -21 32 0 14 -19 29 -27 21 -5 -6 46
-79 60 -85 15 -7 37 -62 37 -92 0 -17 6 -43 14 -58 10 -20 14 -70 15 -177 2
-250 14 -327 72 -452 34 -72 58 -206 41 -226 -6 -7 -18 -40 -27 -72 -20 -77
-50 -107 -163 -163 -52 -25 -101 -56 -110 -70 -9 -14 -70 -51 -153 -92 -147
-73 -227 -119 -329 -190 -135 -95 -328 -215 -412 -258 -48 -24 -88 -47 -88
-52 0 -5 -27 -42 -60 -83 -67 -84 -139 -201 -174 -286 -28 -65 -66 -203 -66
-238 l0 -23 2195 0 2195 0 0 105 c0 301 -130 549 -399 763 -23 19 -79 48 -125
67 -47 18 -153 71 -238 118 -84 47 -191 104 -238 126 -176 82 -290 131 -303
131 -20 0 -235 107 -274 137 -18 13 -33 31 -33 40 0 9 -10 36 -21 60 -19 39
-20 54 -14 129 5 59 12 91 23 102 26 26 65 223 55 273 -5 25 0 35 30 62 50 44
132 248 124 307 -3 23 -1 40 6 43 5 1 12 28 15 59 4 51 2 59 -21 82 -15 14
-35 26 -47 26 l-21 0 22 29 c18 25 22 49 29 172 9 150 16 199 31 199 5 0 7 84
5 188 -3 181 -4 189 -31 242 -15 30 -34 63 -42 72 -9 10 -13 24 -9 33 4 11 1
15 -11 13 -9 -2 -18 3 -21 11 -3 8 0 11 7 7 28 -18 5 15 -53 76 -36 37 -63 74
-63 85 2 14 -6 19 -41 21 -37 3 -46 8 -67 42 -21 32 -31 40 -68 45 -24 4 -55
5 -68 3 -19 -2 -25 2 -27 19 -4 27 -38 38 -84 29 -22 -4 -37 -1 -52 11 -20 17
-20 17 -7 1 8 -11 9 -18 3 -18 -6 0 -17 8 -24 18 -23 32 -72 46 -114 32 -34
-12 -108 -9 -144 4 -8 3 -22 2 -30 -4z m-32 -49 c20 -12 -7 -20 -44 -13 l-29
6 25 7 c34 10 33 10 48 0z m470 -19 c3 -10 -4 -13 -24 -10 -15 2 -29 9 -32 16
-3 10 4 13 24 10 15 -2 29 -9 32 -16z m-600 -14 c-3 -7 -15 -14 -29 -16 -23
-2 -23 -2 -5 13 24 18 39 20 34 3z m70 -10 c-6 -18 -22 -20 -43 -3 -19 14 -18
14 13 15 22 0 32 -4 30 -12z m-250 -185 c-3 -18 -63 -41 -76 -29 -9 10 38 45
61 46 12 0 17 -6 15 -17z m562 -233 c-8 -5 -19 -10 -25 -10 -5 0 -3 5 5 10 8
5 20 10 25 10 6 0 3 -5 -5 -10z m-226 -65 c-4 -8 -8 -15 -10 -15 -2 0 -4 7 -4
15 0 8 4 15 10 15 5 0 7 -7 4 -15z m-37 -16 c6 -6 22 -12 37 -13 15 -2 33 -12
41 -22 8 -11 15 -15 15 -11 0 5 12 1 28 -7 15 -8 45 -23 67 -32 22 -10 47 -23
55 -29 20 -16 113 -45 145 -45 14 0 33 -4 43 -9 9 -5 33 -16 52 -24 19 -8 51
-22 70 -30 51 -22 92 -64 85 -88 -7 -20 13 -27 31 -10 5 5 19 5 33 0 23 -9 24
-12 17 -87 -3 -42 -12 -95 -20 -116 -8 -23 -12 -65 -10 -98 3 -51 1 -59 -14
-57 -9 1 -20 1 -24 0 -5 0 -11 -1 -15 -2 -5 0 -12 -4 -18 -9 -5 -5 -66 -18
-135 -30 -127 -23 -159 -34 -195 -67 -17 -15 -35 -18 -120 -16 -55 1 -103 2
-107 2 -4 1 -23 17 -42 36 -20 19 -42 35 -51 35 -8 0 -15 5 -15 10 0 6 -13 10
-29 10 -16 0 -48 7 -72 15 -28 10 -58 14 -81 10 -22 -4 -38 -3 -38 3 0 17 -69
21 -103 7 -32 -13 -47 -32 -67 -87 -10 -30 -40 -37 -58 -15 -6 7 -9 28 -8 47
2 19 4 43 5 52 0 10 9 25 20 35 16 15 25 44 37 118 1 6 3 12 4 15 1 3 4 37 6
75 13 215 30 264 117 340 49 42 118 70 164 64 10 -1 31 3 47 10 19 7 32 8 40
2 8 -7 16 -4 26 9 16 23 22 24 37 9z m877 -840 c-38 -42 -48 -7 -11 42 l22 31
3 -27 c2 -15 -4 -35 -14 -46z m-1023 41 c25 -14 25 -30 0 -23 -49 13 -225 -70
-219 -103 2 -7 0 -12 -3 -11 -3 1 -13 -4 -22 -12 -15 -12 -17 -10 -17 25 0 43
32 97 69 114 27 12 40 5 23 -12 -22 -22 -12 -32 11 -11 12 11 31 25 42 31 25
14 90 15 116 2z m75 -91 c4 -7 21 -9 40 -6 19 3 48 1 65 -5 30 -10 31 -13 25
-55 -12 -90 -78 -172 -159 -199 -67 -22 -161 -15 -218 17 -52 29 -98 106 -80
136 10 17 10 17 11 -2 1 -11 4 -14 7 -7 2 6 13 12 24 12 10 0 26 11 34 24 9
13 27 27 41 30 13 4 24 11 24 18 0 17 33 38 45 28 6 -5 30 -10 54 -11 32 -2
45 1 52 14 11 20 25 22 35 6z m288 5 c10 -4 16 -18 16 -38 0 -44 26 -179 48
-256 20 -65 20 -65 31 -36 7 16 10 35 7 43 -8 20 10 16 53 -13 40 -26 133 -60
230 -85 60 -15 70 -28 51 -67 -8 -15 -13 -30 -12 -33 1 -4 -7 -14 -18 -24 -10
-9 -16 -23 -13 -31 3 -8 0 -14 -6 -14 -6 0 -8 -7 -5 -15 4 -8 4 -22 0 -30 -6
-16 -18 -9 -72 43 -29 27 -78 22 -69 -8 6 -20 -13 -21 -57 -2 -26 11 -39 32
-20 32 15 0 12 91 -4 128 -15 35 -16 36 -25 14 -8 -22 -53 -47 -68 -38 -4 3
-25 -13 -45 -34 -49 -52 -85 -53 -147 -5 -53 41 -91 49 -97 21 -5 -22 14 -36
50 -36 19 0 35 -10 52 -33 15 -19 26 -39 26 -45 0 -7 5 -12 11 -12 5 0 7 -5 3
-12 -6 -9 -9 -9 -12 0 -2 7 -8 9 -14 6 -5 -3 -9 0 -7 7 3 29 -1 41 -15 36 -7
-3 -18 -1 -24 5 -8 8 -13 6 -18 -6 -5 -14 -9 -15 -15 -4 -7 10 -11 7 -15 -10
-4 -14 -12 -21 -20 -18 -8 3 -14 -1 -14 -11 0 -9 -3 -14 -6 -11 -3 4 -22 -5
-42 -18 -20 -14 -38 -21 -40 -15 -2 5 -11 7 -20 4 -15 -4 -15 -3 -2 6 8 6 24
8 35 6 11 -3 14 -2 6 1 -11 5 -11 8 0 15 8 5 -3 6 -26 2 -39 -6 -58 -20 -49
-34 5 -8 -46 -22 -54 -14 -3 3 2 5 11 5 9 0 17 5 17 10 0 17 -26 11 -54 -11
-29 -22 -62 -19 -52 6 3 8 0 15 -7 15 -8 0 -6 4 3 10 10 6 11 10 3 10 -7 0
-13 5 -13 10 0 6 -20 36 -45 68 -25 31 -45 62 -45 69 0 20 -50 123 -59 123 -5
0 -12 19 -16 43 -4 23 -10 47 -14 52 -3 6 -11 43 -16 82 -11 72 -11 73 12 68
35 -6 39 -11 53 -60 16 -59 61 -120 102 -141 18 -9 64 -22 102 -29 l71 -11
-42 -7 c-66 -11 -68 -31 -2 -24 82 8 169 44 210 88 46 47 109 171 109 213 0
18 5 37 12 44 13 13 66 16 92 6z m254 -50 c32 -5 47 -3 60 9 14 13 20 13 36 2
22 -16 13 -35 -17 -35 -16 0 -18 -3 -9 -9 17 -11 -7 -21 -49 -21 -16 0 -29 -4
-29 -10 0 -5 18 -10 41 -10 24 0 38 -4 34 -10 -10 -16 30 -12 67 7 56 28 62
30 86 28 17 -1 22 4 22 22 0 13 4 22 10 18 5 -3 7 -12 3 -20 -3 -9 0 -28 7
-44 10 -24 9 -35 -5 -62 -41 -81 -92 -109 -199 -109 -107 1 -185 44 -217 122
-10 24 -8 34 15 73 15 25 33 45 40 45 8 0 17 12 21 27 l7 28 16 -22 c11 -14
33 -25 60 -29z m271 -210 c-7 -16 -13 -32 -13 -35 -1 -4 -13 -19 -28 -34 -25
-25 -31 -26 -80 -20 -86 12 -99 21 -39 28 58 7 135 46 152 78 16 30 22 17 8
-17z m-1159 -254 c8 -5 11 -12 8 -16 -4 -3 -14 1 -23 10 -18 17 -9 21 15 6z
m65 -80 c3 -5 2 -10 -4 -10 -5 0 -13 9 -16 20 -4 11 -10 18 -15 15 -4 -3 -7 3
-5 12 2 10 4 20 4 23 1 3 8 -7 15 -22 8 -16 18 -32 21 -38z m655 -66 c0 -8 -4
-12 -10 -9 -5 3 -28 -4 -51 -16 -34 -17 -51 -19 -88 -14 -60 10 -128 10 -168
1 -33 -8 -49 10 -18 19 8 3 23 8 33 12 9 3 23 5 31 4 8 -2 10 2 5 11 -6 10 -4
10 9 -1 13 -10 20 -11 30 -2 8 6 17 8 20 4 9 -8 70 -12 82 -5 18 11 85 13 85
3 0 -6 7 -8 15 -5 8 4 12 11 8 17 -3 6 -1 7 5 3 7 -4 12 -14 12 -22z m-480
-14 c-6 -11 -12 -20 -14 -20 -3 0 -1 23 3 38 1 1 6 2 11 2 7 0 7 -6 0 -20z
m743 -31 c3 -12 -1 -23 -13 -29 -15 -8 -19 -5 -23 18 -3 15 -3 30 -1 34 8 12
32 -3 37 -23z m-83 -3 c0 -2 -7 -6 -15 -10 -8 -3 -15 -1 -15 4 0 6 7 10 15 10
8 0 15 -2 15 -4z m-610 -11 c0 -2 -10 -9 -22 -15 -22 -11 -22 -10 -4 4 21 17
26 19 26 11z m482 -16 c11 7 23 9 26 6 12 -12 -55 -59 -115 -82 -62 -24 -211
-45 -219 -31 -10 15 -24 8 -24 -13 0 -11 4 -18 9 -15 5 4 7 -2 4 -13 -3 -14 5
-22 35 -34 22 -9 43 -21 47 -27 3 -6 12 -7 18 -3 35 22 117 20 135 -4 17 -24
16 -54 -3 -47 -13 5 -14 2 -5 -20 5 -15 6 -26 0 -26 -4 0 -10 -8 -12 -17 -3
-15 -5 -15 -22 3 -19 19 -19 19 -13 -11 5 -26 2 -31 -14 -32 -10 -1 -19 2 -19
8 0 12 -21 7 -39 -9 -12 -12 -16 -10 -26 15 -11 24 -14 25 -20 11 -10 -26 -25
-22 -25 5 0 26 -25 32 -48 14 -11 -9 -12 -4 -7 26 5 26 4 37 -4 37 -7 0 -9 5
-6 10 3 6 -1 10 -9 10 -9 0 -13 6 -10 14 3 7 -2 16 -10 19 -9 4 -16 14 -16 23
0 10 -5 14 -15 10 -9 -3 -25 4 -37 16 -11 11 -33 21 -49 22 -15 1 -24 5 -21
11 10 15 9 49 -2 56 -5 4 7 21 25 39 l34 31 160 -5 c88 -3 176 -2 195 3 21 4
45 3 58 -3 17 -7 29 -6 44 3z m113 -33 c1 -15 -5 -26 -12 -26 -7 0 -13 -6 -13
-14 0 -8 -5 -18 -12 -22 -8 -5 -9 -2 -5 10 4 11 3 15 -4 10 -6 -3 -8 -18 -4
-33 l6 -26 -20 30 c-15 22 -17 31 -8 37 9 6 9 8 0 8 -7 0 -13 7 -13 15 0 8 7
15 16 15 8 0 13 4 9 9 -8 14 27 31 45 21 8 -5 15 -20 15 -34z m-84 -109 c-10
-9 -11 -8 -5 6 3 10 9 15 12 12 3 -3 0 -11 -7 -18z m-743 -74 c16 -16 16 -16
-1 -10 -13 5 -17 3 -15 -5 3 -7 13 -15 24 -17 23 -4 85 -57 77 -65 -3 -3 2 -8
11 -12 9 -3 16 -17 16 -30 0 -14 6 -24 14 -24 8 0 16 -7 20 -15 3 -8 12 -15
19 -15 14 0 78 -66 105 -110 9 -14 23 -29 31 -34 13 -8 12 -11 -4 -17 -18 -7
-18 -8 -2 -8 10 -1 16 -5 13 -9 -3 -5 6 -15 19 -22 25 -13 33 -30 16 -30 -35
0 -161 34 -214 58 -107 49 -148 114 -162 257 -3 32 -8 62 -11 67 -3 4 0 8 6 8
6 0 10 6 9 13 -5 39 4 46 29 20z m312 -7 c0 -3 -4 -8 -10 -11 -5 -3 -10 -1
-10 4 0 6 5 11 10 11 6 0 10 -2 10 -4z m-6 -71 c-4 -8 -8 -15 -10 -15 -2 0 -4
7 -4 15 0 8 4 15 10 15 5 0 7 -7 4 -15z"/>
<path d="M3232 1430 c0 -14 2 -19 5 -12 2 6 2 18 0 25 -3 6 -5 1 -5 -13z"/>
</g>
</svg>
