<svg width="20" height="20" viewBox="0 0 20 20" fill="none" xmlns="http://www.w3.org/2000/svg">
<path d="M14.7085 5.29134C14.0917 4.67038 13.3581 4.17764 12.55 3.84153C11.742 3.50543 10.8753 3.3326 10.0001 3.33301C6.3168 3.33301 3.3418 6.31634 3.3418 9.99968C3.3418 13.683 6.3168 16.6663 10.0001 16.6663C13.1085 16.6663 15.7001 14.5413 16.4418 11.6663H14.7085C14.3652 12.6409 13.7279 13.485 12.8846 14.082C12.0413 14.6791 11.0334 14.9997 10.0001 14.9997C7.2418 14.9997 5.00013 12.758 5.00013 9.99968C5.00013 7.24134 7.2418 4.99968 10.0001 4.99968C11.3835 4.99968 12.6168 5.57468 13.5168 6.48301L10.8335 9.16634H16.6668V3.33301L14.7085 5.29134Z" fill="white"/>
</svg>
