<svg width="12" height="15" viewBox="0 0 12 15" fill="none" xmlns="http://www.w3.org/2000/svg">
<path d="M1.2274 5.12069C1.36805 4.95493 1.55878 4.86182 1.75765 4.86182C1.95653 4.86182 2.14726 4.95493 2.2879 5.12069L6.0004 9.49739L9.7129 5.12069C9.85435 4.95963 10.0438 4.87051 10.2405 4.87253C10.4371 4.87454 10.6252 4.96753 10.7643 5.13146C10.9033 5.2954 10.9822 5.51716 10.9839 5.74899C10.9856 5.98082 10.91 6.20417 10.7734 6.37092L6.53065 11.3727C6.39001 11.5385 6.19928 11.6316 6.0004 11.6316C5.80153 11.6316 5.6108 11.5385 5.47015 11.3727L1.2274 6.37092C1.0868 6.20512 1.00781 5.98026 1.00781 5.74581C1.00781 5.51136 1.0868 5.2865 1.2274 5.12069Z" fill="#CCCCCC"/>
</svg>
