<svg width="1002" height="107" viewBox="0 0 1002 107" fill="none" xmlns="http://www.w3.org/2000/svg">
<path d="M61.4064 19.3541C47.0149 9.29566 26.1065 3.30721 11.5197 0.411966C5.65132 -0.752822 0.438477 3.85948 0.438477 9.84238V39.5111C0.438477 45.3466 5.42468 50.3284 11.2206 51.006C23.8034 52.4768 45.1031 56.3571 69.4587 63.7618C103.969 74.2537 126.209 62.7858 158.802 46.4379C191.395 30.09 220.153 41.314 251.979 41.802C283.805 42.29 285.722 49.1219 324.45 46.4379C363.178 43.7539 371.614 53.2699 411.492 53.2699C451.371 53.2699 471.693 62.7858 497.384 71.8138C523.075 80.8417 544.932 88.6496 588.644 101.582C632.357 114.513 629.29 96.4576 676.837 92.0656C724.384 87.6736 728.219 77.4257 747.774 67.9098C767.33 58.3938 818.712 53.2699 863.959 36.922C909.205 20.5741 916.874 26.6741 939.881 29.602C954.391 31.4486 976.526 32.81 991.634 33.5426C997.296 33.8172 1002 29.2828 1002 23.6133V21.453C1002 16.1629 997.878 11.8001 992.602 11.4122C975.757 10.1738 958.65 8.1538 929.528 3.00623C895.018 -3.09373 862.808 19.3541 830.982 29.602C799.156 39.85 753.143 44.2419 738.955 58.8818C724.768 73.5217 692.942 72.7897 669.168 74.0097C645.394 75.2297 634.658 82.5497 600.915 81.3297C567.171 80.1097 575.224 72.7897 544.932 67.9098C514.639 63.0298 515.79 60.5898 490.866 53.2699C465.942 45.9499 448.687 42.534 391.17 36.19C333.653 29.846 324.45 35.702 297.226 29.602C270.001 23.5021 260.798 26.6741 228.205 19.3541C195.612 12.0342 172.989 14.2301 143.847 26.6741C114.705 39.118 84.7966 35.702 61.4064 19.3541Z" fill="#6B21A8"/>
</svg>
